<svg width="1080" height="1080" viewBox="0 0 1080 1080" fill="none" xmlns="http://www.w3.org/2000/svg">
<rect width="1080" height="1080" rx="540" fill="black"/>
<g clip-path="url(#clip0_326_56)">
<path d="M585.244 484.241H649.639C651.845 484.241 653.631 486.027 653.631 488.233V805.036C653.631 808.319 657.387 810.184 660.013 808.24L714.508 767.507C715.506 766.746 716.11 765.564 716.11 764.303V488.259C716.11 486.053 717.895 484.267 720.101 484.267H872.161C873.421 484.267 874.603 483.663 875.365 482.665L916.098 428.171C918.068 425.545 916.177 421.789 912.894 421.789H585.27C583.064 421.789 581.278 423.575 581.278 425.781V480.275C581.278 482.481 583.064 484.267 585.27 484.267L585.244 484.241Z" fill="white"/>
<path d="M646.829 354.057V380.346C646.829 382.552 648.615 384.338 650.821 384.338H948.112C949.398 384.338 950.606 383.734 951.342 382.683L970.303 356.395C972.194 353.769 970.303 350.092 967.073 350.092H650.821C648.615 350.092 646.829 351.878 646.829 354.084V354.057Z" fill="white"/>
<path d="M546.323 890.862L572.612 871.9C573.663 871.139 574.267 869.957 574.267 868.67V707.445C574.267 705.239 572.483 703.453 570.277 703.453H543.986C541.78 703.453 539.994 705.239 539.994 707.445V887.631C539.994 890.888 543.674 892.753 546.3 890.862H546.323Z" fill="white"/>
<path d="M766.954 777.881L541.465 926.29C540.125 927.156 538.418 927.156 537.079 926.29L311.591 777.881C310.461 777.145 309.805 775.885 309.805 774.545V515.283C309.805 513.077 308.019 511.291 305.813 511.291H284.225C282.019 511.291 280.233 513.077 280.233 515.283V788.753C280.233 791.17 281.441 793.428 283.464 794.768C367.425 850.024 451.359 905.28 535.319 960.536C537.709 962.112 540.835 962.112 543.224 960.536C627.159 905.28 711.12 850.024 795.055 794.768C797.077 793.428 798.285 791.17 798.285 788.753V515.283C798.285 513.077 796.499 511.291 794.293 511.291H772.705C770.499 511.291 768.714 513.077 768.714 515.283V774.545C768.714 775.885 768.031 777.145 766.928 777.881H766.954Z" fill="white"/>
<path d="M364.063 767.454L418.556 808.187C421.183 810.157 424.938 808.266 424.938 804.983V626.136C424.938 623.93 426.724 622.144 428.93 622.144H491.356C492.617 622.144 493.798 621.54 494.56 620.542L535.293 566.048C537.263 563.422 535.372 559.666 532.089 559.666H428.93C426.724 559.666 424.938 557.88 424.938 555.674V488.154C424.938 485.947 426.724 484.162 428.93 484.162H535.45C537.657 484.162 539.442 482.376 539.442 480.17V425.675C539.442 423.469 537.657 421.684 535.45 421.684H165.703C162.42 421.684 160.556 425.439 162.499 428.065L203.232 482.56C203.994 483.558 205.176 484.162 206.436 484.162H358.496C360.702 484.162 362.488 485.947 362.488 488.154V764.198C362.488 765.458 363.092 766.64 364.09 767.402L364.063 767.454Z" fill="white"/>
<path d="M427.722 350.065H111.471C108.214 350.065 106.35 353.742 108.241 356.368L127.202 382.657C127.964 383.707 129.145 384.312 130.432 384.312H427.722C429.928 384.312 431.714 382.526 431.714 380.32V354.031C431.714 351.825 429.928 350.039 427.722 350.039V350.065Z" fill="white"/>
<path d="M540.02 211.033L521.847 247.827L481.219 253.736L510.633 282.388L503.673 322.832L540.02 303.74L576.341 322.832L569.408 282.388L598.796 253.736L558.168 247.827L540.02 211.033Z" fill="white"/>
<path d="M539.836 168.75C477.095 168.75 426.041 219.804 426.041 282.545C426.041 345.286 477.095 396.34 539.836 396.34C602.577 396.34 653.631 345.286 653.631 282.545C653.631 219.804 602.577 168.75 539.836 168.75ZM613.87 223.98C617.363 229.259 620.147 234.301 622.353 238.923C615.235 246.04 608.118 253.131 601.001 260.248C610.876 261.824 620.777 263.426 630.651 265.002C632.122 271.751 633.33 279.971 633.54 289.347C633.698 296.07 633.304 302.163 632.647 307.468C635.746 301.165 638.924 293.181 641.104 283.674C642.207 278.816 642.916 274.246 643.336 270.097C645.122 275.323 650.27 292.735 643.179 313.22C636.114 333.573 621.407 344.025 616.759 347.046C618.781 342.082 620.777 336.514 622.536 330.369C624.742 322.648 626.161 315.504 627.106 309.123C624.007 315.058 619.779 322.044 613.975 329.24C609.51 334.807 605.019 339.403 600.922 343.132C590.47 337.985 579.991 332.864 569.539 327.716C572.507 338.274 575.448 348.831 578.416 359.363C574.923 361.254 571.141 363.144 567.07 364.93C557.563 369.106 548.634 371.864 540.729 373.702C547.216 374.857 555.016 375.698 563.866 375.593C570.064 375.514 575.711 374.989 580.648 374.253C575.5 377.773 560.977 386.649 540.519 386.492C518.301 386.308 503.069 375.619 498.263 371.916C504.855 371.811 511.84 371.443 519.168 370.813C524.551 370.34 529.699 369.736 534.61 369.027C528.018 368.029 519.85 366.138 510.921 362.567C504.671 360.072 499.339 357.262 494.901 354.557C495.531 342.738 496.135 330.947 496.766 319.129C488.572 325.484 480.404 331.84 472.21 338.221C469.584 336.015 466.905 333.547 464.2 330.763C456.269 322.595 450.675 314.27 446.736 307.074C447.839 312.878 449.52 319.628 452.172 326.981C454.72 334.046 457.635 340.086 460.392 345.102C453.695 339.193 443.427 328.347 437.334 312.117C432.16 298.25 432.502 287.036 433.132 282.361C433.999 276.163 436.31 271.068 436.31 271.068C437.334 268.784 438.437 266.971 439.251 265.737C439.645 270.018 440.407 274.955 441.798 280.313C443.952 288.48 446.92 295.204 449.703 300.325C448.784 294.915 448.128 288.191 448.364 280.523C448.653 271.567 450.097 263.951 451.647 258.042C455.297 256.309 459.447 254.576 464.069 253.026C470.845 250.768 477.121 249.402 482.531 248.588C475.283 243.151 468.061 237.715 460.812 232.253C463.307 226.895 466.748 220.592 471.475 214C475.966 207.723 480.562 202.629 484.659 198.663C478.54 202.024 471.501 206.568 464.305 212.661C460.103 216.232 456.479 219.804 453.38 223.166C457.214 216.311 465.251 204.073 479.879 193.804C495.715 182.695 511.263 179.57 519.168 178.546C513.784 181.855 508.164 185.584 502.386 189.786C498.446 192.649 494.744 195.511 491.277 198.348C504.461 195.17 517.671 191.966 530.854 188.788C535.844 196.903 540.834 205.018 545.824 213.133C549.474 204.835 553.151 196.536 556.802 188.263C569.801 191.651 582.801 195.065 595.801 198.453C592.44 195.616 588.579 192.675 584.246 189.786C576.971 184.954 570.012 181.408 563.892 178.782C564.286 178.756 564.838 178.703 565.547 178.651C566.466 178.572 567.149 178.52 567.175 178.52C567.911 178.441 585.638 178.73 605.256 196.037C617.442 206.778 624.532 218.964 628.603 228.051C626.476 225.477 624.007 222.824 621.145 220.146C613.108 212.634 604.862 207.75 598.139 204.572C603.076 209.588 608.565 215.97 613.817 223.927L613.87 223.98Z" fill="white"/>
</g>
<defs>
<clipPath id="clip0_326_56">
<rect width="864.034" height="793.125" fill="white" transform="translate(107.483 168.75)"/>
</clipPath>
</defs>
</svg>
