<svg width="329" height="302" viewBox="0 0 329 302" fill="none" xmlns="http://www.w3.org/2000/svg">
<g clip-path="url(#clip0_58_75)">
<path d="M181.918 120.13H206.438C207.278 120.13 207.958 120.81 207.958 121.65V242.28C207.958 243.53 209.388 244.24 210.388 243.5L231.138 227.99C231.518 227.7 231.748 227.25 231.748 226.77V121.66C231.748 120.82 232.428 120.14 233.268 120.14H291.168C291.648 120.14 292.098 119.91 292.388 119.53L307.898 98.7801C308.648 97.7801 307.928 96.3501 306.678 96.3501H181.928C181.088 96.3501 180.408 97.0301 180.408 97.8701V118.62C180.408 119.46 181.088 120.14 181.928 120.14L181.918 120.13Z" fill="#231F20"/>
<path d="M205.368 70.56V80.57C205.368 81.41 206.048 82.09 206.888 82.09H320.088C320.578 82.09 321.038 81.86 321.318 81.46L328.538 71.45C329.258 70.45 328.538 69.05 327.308 69.05H206.888C206.048 69.05 205.368 69.73 205.368 70.57V70.56Z" fill="#231F20"/>
<path d="M167.098 274.96L177.108 267.74C177.508 267.45 177.738 267 177.738 266.51V205.12C177.738 204.28 177.059 203.6 176.219 203.6H166.208C165.368 203.6 164.688 204.28 164.688 205.12V273.73C164.688 274.97 166.089 275.68 167.089 274.96H167.098Z" fill="#231F20"/>
<path d="M251.108 231.94L165.248 288.45C164.738 288.78 164.088 288.78 163.578 288.45L77.7183 231.94C77.2883 231.66 77.0383 231.18 77.0383 230.67V131.95C77.0383 131.11 76.3583 130.43 75.5183 130.43H67.2983C66.4583 130.43 65.7783 131.11 65.7783 131.95V236.08C65.7783 237 66.2383 237.86 67.0083 238.37C98.9783 259.41 130.938 280.45 162.908 301.49C163.818 302.09 165.008 302.09 165.918 301.49C197.878 280.45 229.848 259.41 261.808 238.37C262.578 237.86 263.038 237 263.038 236.08V131.95C263.038 131.11 262.358 130.43 261.518 130.43H253.298C252.458 130.43 251.778 131.11 251.778 131.95V230.67C251.778 231.18 251.518 231.66 251.098 231.94H251.108Z" fill="#231F20"/>
<path d="M97.6985 227.97L118.448 243.48C119.448 244.23 120.878 243.51 120.878 242.26V174.16C120.878 173.32 121.558 172.64 122.398 172.64H146.168C146.648 172.64 147.098 172.41 147.388 172.03L162.898 151.28C163.648 150.28 162.928 148.85 161.678 148.85H122.398C121.558 148.85 120.878 148.17 120.878 147.33V121.62C120.878 120.78 121.558 120.1 122.398 120.1H162.958C163.798 120.1 164.478 119.42 164.478 118.58V97.8301C164.478 96.9901 163.798 96.3101 162.958 96.3101H22.1685C20.9185 96.3101 20.2085 97.7401 20.9485 98.7401L36.4585 119.49C36.7485 119.87 37.1985 120.1 37.6785 120.1H95.5785C96.4185 120.1 97.0985 120.78 97.0985 121.62V226.73C97.0985 227.21 97.3285 227.66 97.7085 227.95L97.6985 227.97Z" fill="#231F20"/>
<path d="M121.938 69.04H1.51829C0.27829 69.04 -0.431713 70.44 0.288287 71.44L7.50829 81.45C7.79829 81.85 8.24829 82.08 8.73829 82.08H121.938C122.778 82.08 123.458 81.4 123.458 80.56V70.55C123.458 69.71 122.778 69.03 121.938 69.03V69.04Z" fill="#231F20"/>
<path d="M164.698 16.1001L157.778 30.1101L142.308 32.3601L153.508 43.2701L150.858 58.6701L164.698 51.4001L178.528 58.6701L175.888 43.2701L187.078 32.3601L171.608 30.1101L164.698 16.1001Z" fill="#231F20"/>
<path d="M164.628 0C140.738 0 121.298 19.44 121.298 43.33C121.298 67.22 140.738 86.66 164.628 86.66C188.518 86.66 207.958 67.22 207.958 43.33C207.958 19.44 188.518 0 164.628 0ZM192.818 21.03C194.148 23.04 195.208 24.96 196.048 26.72C193.338 29.43 190.628 32.13 187.918 34.84C191.678 35.44 195.448 36.05 199.208 36.65C199.768 39.22 200.228 42.35 200.308 45.92C200.368 48.48 200.218 50.8 199.968 52.82C201.148 50.42 202.358 47.38 203.188 43.76C203.608 41.91 203.878 40.17 204.038 38.59C204.718 40.58 206.678 47.21 203.978 55.01C201.288 62.76 195.688 66.74 193.918 67.89C194.688 66 195.448 63.88 196.118 61.54C196.958 58.6 197.498 55.88 197.858 53.45C196.678 55.71 195.068 58.37 192.858 61.11C191.158 63.23 189.448 64.98 187.888 66.4C183.908 64.44 179.918 62.49 175.938 60.53C177.068 64.55 178.188 68.57 179.318 72.58C177.988 73.3 176.548 74.02 174.998 74.7C171.378 76.29 167.978 77.34 164.968 78.04C167.438 78.48 170.408 78.8 173.778 78.76C176.138 78.73 178.288 78.53 180.168 78.25C178.208 79.59 172.678 82.97 164.888 82.91C156.428 82.84 150.628 78.77 148.798 77.36C151.308 77.32 153.968 77.18 156.758 76.94C158.808 76.76 160.768 76.53 162.638 76.26C160.128 75.88 157.018 75.16 153.618 73.8C151.238 72.85 149.208 71.78 147.518 70.75C147.758 66.25 147.988 61.76 148.228 57.26C145.108 59.68 141.998 62.1 138.878 64.53C137.878 63.69 136.858 62.75 135.828 61.69C132.808 58.58 130.678 55.41 129.178 52.67C129.598 54.88 130.238 57.45 131.248 60.25C132.218 62.94 133.328 65.24 134.378 67.15C131.828 64.9 127.918 60.77 125.598 54.59C123.628 49.31 123.758 45.04 123.998 43.26C124.328 40.9 125.208 38.96 125.208 38.96C125.598 38.09 126.018 37.4 126.328 36.93C126.478 38.56 126.768 40.44 127.298 42.48C128.118 45.59 129.248 48.15 130.308 50.1C129.958 48.04 129.708 45.48 129.798 42.56C129.908 39.15 130.458 36.25 131.048 34C132.438 33.34 134.018 32.68 135.778 32.09C138.358 31.23 140.748 30.71 142.808 30.4C140.048 28.33 137.298 26.26 134.538 24.18C135.488 22.14 136.798 19.74 138.598 17.23C140.308 14.84 142.058 12.9 143.618 11.39C141.288 12.67 138.608 14.4 135.868 16.72C134.268 18.08 132.888 19.44 131.708 20.72C133.168 18.11 136.228 13.45 141.798 9.54C147.828 5.31 153.748 4.12 156.758 3.73C154.708 4.99 152.568 6.41 150.368 8.01C148.868 9.1 147.458 10.19 146.138 11.27C151.158 10.06 156.188 8.84 161.208 7.63C163.108 10.72 165.008 13.81 166.908 16.9C168.298 13.74 169.698 10.58 171.088 7.43C176.038 8.72 180.988 10.02 185.938 11.31C184.658 10.23 183.188 9.11 181.538 8.01C178.768 6.17 176.118 4.82 173.788 3.82C173.938 3.81 174.148 3.79 174.418 3.77C174.768 3.74 175.028 3.72 175.038 3.72C175.318 3.69 182.068 3.8 189.538 10.39C194.178 14.48 196.878 19.12 198.428 22.58C197.618 21.6 196.678 20.59 195.588 19.57C192.528 16.71 189.388 14.85 186.828 13.64C188.708 15.55 190.798 17.98 192.798 21.01L192.818 21.03Z" fill="#231F20"/>
</g>
<defs>
<clipPath id="clip0_58_75">
<rect width="329" height="302" fill="white"/>
</clipPath>
</defs>
</svg>
