<svg width="770" height="138" viewBox="0 0 770 138" fill="none" xmlns="http://www.w3.org/2000/svg">
<g clip-path="url(#clip0_713_7)">
<path d="M0 137.931V40.278H11.4496L0 28.76V17.243L17.2425 0H68.9655V23.031H22.9673V57.448H63.1726L40.2098 80.483H22.9673V137.931H0.00449246H0Z" fill="white"/>
<path d="M80.4102 137.931V92.001H91.8598L80.4102 80.483V17.243L97.6527 0H132.134L149.376 17.243V137.931H126.341V92.001H103.373V137.931H80.4102ZM126.341 68.97V23.04H103.373V68.97H126.341Z" fill="white"/>
<path d="M183.788 137.931V86.2079L160.826 63.2409V40.2779H172.275L160.826 28.7599V0.00390625H183.788V51.7269L195.306 63.2449L206.756 51.7269V0.00390625H229.791V63.2409L206.756 86.2079V137.931H183.788Z" fill="white"/>
<path d="M241.236 137.931V46.0029H252.686L241.236 34.4849V0.00390625L287.166 46.0029V0.00390625H310.202V137.931H287.166V80.4829L264.199 57.5159V137.926H241.236V137.931Z" fill="white"/>
<path d="M321.646 137.931V92.001H333.096L321.646 80.483V17.243L338.889 0H373.37L390.612 17.243V137.931H367.577V92.001H344.609V137.931H321.646ZM367.581 68.97V23.04H344.615V68.97H367.581Z" fill="white"/>
<path d="M470.955 137.931V34.4849L482.473 23.0349H447.992V0.00390625H516.958V23.0349H493.922V137.931H470.955Z" fill="white"/>
<path d="M545.645 137.931L528.403 120.689V40.278H539.852L528.403 28.76V17.243L545.645 0H597.368V23.031H551.37V57.448H591.575L568.613 80.483H551.37V114.896H597.368V137.931H545.645Z" fill="white"/>
<path d="M608.817 137.931V92.001H620.267L608.817 80.483V17.243L626.06 0H660.54L677.783 17.243V137.931H654.747V92.001H631.78V137.931H608.817ZM654.747 68.97V23.04H631.78V68.97H654.747Z" fill="white"/>
<path d="M689.228 137.931V46.0029H700.678L689.228 34.4849V0.00390625L723.709 34.4849V34.5529L729.433 40.2779L769.639 0.00390625V34.4849L758.189 46.0029H769.639V137.931H746.671V57.5199L729.429 74.7629L712.186 57.5199V137.931H689.224H689.228Z" fill="white"/>
</g>
<defs>
<clipPath id="clip0_713_7">
<rect width="770" height="138" fill="white"/>
</clipPath>
</defs>
</svg>
