<svg width="770" height="471" viewBox="0 0 770 471" fill="none" xmlns="http://www.w3.org/2000/svg">
<g clip-path="url(#clip0_84_479)">
<path d="M399.22 99.4456H419.491C420.186 99.4456 420.748 100.009 420.748 100.704V200.563C420.748 201.598 421.93 202.186 422.757 201.573L439.912 188.734C440.226 188.494 440.416 188.121 440.416 187.724V100.712C440.416 100.017 440.979 99.4539 441.673 99.4539H489.542C489.939 99.4539 490.311 99.2635 490.55 98.9489L503.373 81.7718C503.993 80.944 503.398 79.7603 502.365 79.7603H399.228C398.533 79.7603 397.971 80.3232 397.971 81.0185V98.1956C397.971 98.891 398.533 99.4539 399.228 99.4539L399.22 99.4456Z" fill="white"/>
<path d="M418.607 58.4106V66.6971C418.607 67.3924 419.169 67.9553 419.864 67.9553H513.451C513.857 67.9553 514.237 67.7649 514.468 67.4338L520.437 59.1474C521.033 58.3196 520.437 57.1606 519.421 57.1606H419.864C419.169 57.1606 418.607 57.7236 418.607 58.4189V58.4106Z" fill="white"/>
<path d="M386.967 227.616L395.243 221.639C395.574 221.399 395.764 221.026 395.764 220.621V169.801C395.764 169.106 395.202 168.543 394.508 168.543H386.231C385.537 168.543 384.975 169.106 384.975 169.801V226.598C384.975 227.624 386.133 228.212 386.96 227.616H386.967Z" fill="white"/>
<path d="M456.422 192.003L385.438 238.783C385.016 239.056 384.478 239.056 384.057 238.783L313.073 192.003C312.717 191.771 312.51 191.374 312.51 190.952V109.23C312.51 108.535 311.948 107.972 311.254 107.972H304.458C303.763 107.972 303.201 108.535 303.201 109.23V195.43C303.201 196.192 303.581 196.904 304.218 197.326C330.649 214.743 357.072 232.16 383.503 249.578C384.255 250.074 385.239 250.074 385.991 249.578C412.414 232.16 438.845 214.743 465.268 197.326C465.905 196.904 466.285 196.192 466.285 195.43V109.23C466.285 108.535 465.723 107.972 465.029 107.972H458.233C457.538 107.972 456.976 108.535 456.976 109.23V190.952C456.976 191.374 456.761 191.771 456.414 192.003H456.422Z" fill="white"/>
<path d="M329.591 188.717L346.746 201.556C347.573 202.177 348.755 201.581 348.755 200.546V144.172C348.755 143.477 349.317 142.914 350.012 142.914H369.664C370.06 142.914 370.432 142.724 370.672 142.409L383.495 125.232C384.115 124.404 383.52 123.22 382.486 123.22H350.012C349.317 123.22 348.755 122.657 348.755 121.962V100.679C348.755 99.9836 349.317 99.4207 350.012 99.4207H383.545C384.239 99.4207 384.801 98.8578 384.801 98.1624V80.9853C384.801 80.29 384.239 79.7271 383.545 79.7271H267.147C266.114 79.7271 265.527 80.9108 266.139 81.7386L278.961 98.9157C279.201 99.2303 279.573 99.4207 279.97 99.4207H327.839C328.533 99.4207 329.095 99.9836 329.095 100.679V187.691C329.095 188.088 329.286 188.46 329.6 188.7L329.591 188.717Z" fill="white"/>
<path d="M349.631 57.1523H250.075C249.049 57.1523 248.462 58.3113 249.058 59.1391L255.027 67.4255C255.267 67.7566 255.639 67.947 256.044 67.947H349.631C350.326 67.947 350.888 67.3841 350.888 66.6887V58.4023C350.888 57.707 350.326 57.144 349.631 57.144V57.1523Z" fill="white"/>
<path d="M384.983 13.3281L379.262 24.9258L366.472 26.7884L375.732 35.8198L373.541 48.5682L384.983 42.55L396.417 48.5682L394.234 35.8198L403.486 26.7884L390.696 24.9258L384.983 13.3281Z" fill="white"/>
<path d="M384.925 0C365.174 0 349.102 16.0927 349.102 35.8692C349.102 55.6457 365.174 71.7384 384.925 71.7384C404.676 71.7384 420.748 55.6457 420.748 35.8692C420.748 16.0927 404.676 0 384.925 0ZM408.231 17.4089C409.331 19.0728 410.207 20.6622 410.901 22.1192C408.661 24.3626 406.42 26.5977 404.18 28.8411C407.289 29.3377 410.405 29.8427 413.514 30.3394C413.977 32.4669 414.357 35.0579 414.423 38.0132C414.473 40.1324 414.349 42.053 414.142 43.7252C415.118 41.7384 416.118 39.2219 416.804 36.2252C417.152 34.6937 417.375 33.2533 417.507 31.9454C418.069 33.5927 419.69 39.0811 417.458 45.5381C415.234 51.9536 410.604 55.2483 409.14 56.2003C409.777 54.6358 410.405 52.8808 410.959 50.9437C411.654 48.5099 412.1 46.2583 412.398 44.2467C411.422 46.1175 410.091 48.3195 408.264 50.5877C406.859 52.3427 405.445 53.7914 404.155 54.9669C400.865 53.3444 397.566 51.7301 394.276 50.1076C395.21 53.4354 396.136 56.7632 397.07 60.0828C395.97 60.6788 394.78 61.2748 393.498 61.8377C390.506 63.154 387.695 64.0232 385.206 64.6026C387.248 64.9669 389.704 65.2318 392.49 65.1987C394.441 65.1738 396.218 65.0083 397.773 64.7765C396.152 65.8858 391.58 68.6838 385.14 68.6341C378.146 68.5762 373.351 65.207 371.838 64.0397C373.913 64.0066 376.112 63.8907 378.419 63.6921C380.113 63.543 381.734 63.3526 383.28 63.1291C381.205 62.8146 378.633 62.2185 375.823 61.0927C373.855 60.3063 372.177 59.4205 370.779 58.5679C370.978 54.8427 371.168 51.1258 371.366 47.4007C368.787 49.404 366.216 51.4073 363.636 53.4189C362.81 52.7235 361.966 51.9454 361.115 51.0679C358.618 48.4934 356.857 45.8692 355.617 43.601C355.964 45.4305 356.493 47.5579 357.328 49.8758C358.13 52.1026 359.048 54.0066 359.916 55.5877C357.808 53.7252 354.575 50.3063 352.657 45.1904C351.028 40.8195 351.136 37.2848 351.334 35.8113C351.607 33.8576 352.335 32.2517 352.335 32.2517C352.657 31.5315 353.004 30.9603 353.261 30.5712C353.385 31.9205 353.624 33.4768 354.063 35.1656C354.74 37.7401 355.675 39.8593 356.551 41.4735C356.262 39.7682 356.055 37.649 356.129 35.2318C356.22 32.4089 356.675 30.0083 357.163 28.1457C358.312 27.5993 359.618 27.053 361.073 26.5646C363.206 25.8526 365.182 25.4222 366.885 25.1656C364.604 23.452 362.33 21.7384 360.048 20.0166C360.834 18.3278 361.917 16.3411 363.405 14.2632C364.819 12.2848 366.265 10.6788 367.555 9.42881C365.629 10.4884 363.413 11.9205 361.148 13.8411C359.825 14.9669 358.684 16.0927 357.708 17.1523C358.916 14.9917 361.445 11.1341 366.05 7.89735C371.036 4.3957 375.93 3.4106 378.419 3.08775C376.724 4.13079 374.954 5.30629 373.136 6.63079C371.895 7.53311 370.73 8.43543 369.638 9.32947C373.789 8.32781 377.947 7.31788 382.098 6.31622C383.668 8.87417 385.239 11.4321 386.81 13.9901C387.959 11.3742 389.117 8.75828 390.266 6.15066C394.358 7.21854 398.451 8.2947 402.543 9.36258C401.485 8.46854 400.269 7.54139 398.905 6.63079C396.615 5.10762 394.424 3.99007 392.498 3.16225C392.622 3.15397 392.796 3.13742 393.019 3.12086C393.308 3.09603 393.523 3.07947 393.531 3.07947C393.763 3.05464 399.344 3.1457 405.519 8.60099C409.355 11.9868 411.588 15.8278 412.869 18.6921C412.199 17.8808 411.422 17.0447 410.521 16.2003C407.991 13.8328 405.395 12.293 403.279 11.2914C404.833 12.8725 406.561 14.8841 408.215 17.3924L408.231 17.4089Z" fill="white"/>
</g>
<path d="M0 470.931V373.278H11.4496L0 361.76V350.243L17.2425 333H68.9655V356.031H22.9673V390.448H63.1726L40.2098 413.483H22.9673V470.931H0.00449246H0Z" fill="white"/>
<path d="M80.4106 470.931V425.001H91.8602L80.4106 413.483V350.243L97.6531 333H132.134L149.376 350.243V470.931H126.341V425.001H103.373V470.931H80.4106ZM126.341 401.97V356.04H103.373V401.97H126.341Z" fill="white"/>
<path d="M183.788 470.931V419.208L160.826 396.241V373.278H172.275L160.826 361.76V333.004H183.788V384.727L195.306 396.245L206.756 384.727V333.004H229.791V396.241L206.756 419.208V470.931H183.788Z" fill="white"/>
<path d="M241.236 470.931V379.003H252.686L241.236 367.485V333.004L287.166 379.003V333.004H310.202V470.931H287.166V413.483L264.199 390.516V470.926H241.236V470.931Z" fill="white"/>
<path d="M321.646 470.931V425.001H333.096L321.646 413.483V350.243L338.889 333H373.37L390.612 350.243V470.931H367.577V425.001H344.609V470.931H321.646ZM367.581 401.97V356.04H344.614V401.97H367.581Z" fill="white"/>
<path d="M470.955 470.931V367.485L482.473 356.035H447.992V333.004H516.958V356.035H493.922V470.931H470.955Z" fill="white"/>
<path d="M545.645 470.931L528.403 453.689V373.278H539.852L528.403 361.76V350.243L545.645 333H597.368V356.031H551.37V390.448H591.575L568.613 413.483H551.37V447.896H597.368V470.931H545.645Z" fill="white"/>
<path d="M608.817 470.931V425.001H620.267L608.817 413.483V350.243L626.06 333H660.54L677.783 350.243V470.931H654.747V425.001H631.78V470.931H608.817ZM654.747 401.97V356.04H631.78V401.97H654.747Z" fill="white"/>
<path d="M689.228 470.931V379.003H700.678L689.228 367.485V333.004L723.709 367.485V367.553L729.433 373.278L769.639 333.004V367.485L758.189 379.003H769.639V470.931H746.671V390.52L729.429 407.763L712.186 390.52V470.931H689.224H689.228Z" fill="white"/>
<defs>
<clipPath id="clip0_84_479">
<rect width="272" height="250" fill="white" transform="translate(248.819)"/>
</clipPath>
</defs>
</svg>
