<svg width="64" height="64" viewBox="0 0 64 64" fill="none" xmlns="http://www.w3.org/2000/svg">
<g clip-path="url(#clip0_169_17)">
<circle cx="32" cy="32" r="32" fill="black"/>
<g clip-path="url(#clip1_169_17)">
<path d="M34.1999 28.696H38.0009C38.1311 28.696 38.2365 28.8018 38.2365 28.9325V47.7061C38.2365 47.9006 38.4582 48.0111 38.6132 47.8959L41.8297 45.4821C41.8886 45.437 41.9243 45.367 41.9243 45.2923V28.9341C41.9243 28.8033 42.0297 28.6975 42.1599 28.6975H51.1353C51.2097 28.6975 51.2795 28.6617 51.3244 28.6026L53.7287 25.3733C53.845 25.2177 53.7334 24.9951 53.5396 24.9951H34.2014C34.0712 24.9951 33.9658 25.1009 33.9658 25.2317V28.461C33.9658 28.5917 34.0712 28.6975 34.2014 28.6975L34.1999 28.696Z" fill="white"/>
<path d="M37.835 20.9811V22.5389C37.835 22.6697 37.9404 22.7755 38.0706 22.7755H55.6183C55.6943 22.7755 55.7656 22.7397 55.809 22.6775L56.9282 21.1196C57.0398 20.964 56.9282 20.7461 56.7375 20.7461H38.0706C37.9404 20.7461 37.835 20.8519 37.835 20.9826V20.9811Z" fill="white"/>
<path d="M31.9029 52.7917L33.4546 51.6681C33.5166 51.623 33.5522 51.5529 33.5522 51.4767V41.9226C33.5522 41.7919 33.447 41.686 33.3168 41.686H31.7649C31.6347 41.686 31.5293 41.7919 31.5293 41.9226V52.6003C31.5293 52.7933 31.7465 52.9038 31.9015 52.7917H31.9029Z" fill="white"/>
<path d="M44.9257 46.0967L31.6161 54.8913C31.537 54.9427 31.4363 54.9427 31.3572 54.8913L18.0477 46.0967C17.981 46.0532 17.9422 45.9785 17.9422 45.8991V30.5354C17.9422 30.4047 17.8368 30.2988 17.7066 30.2988H16.4324C16.3022 30.2988 16.1968 30.4047 16.1968 30.5354V46.741C16.1968 46.8842 16.2681 47.0181 16.3874 47.0974C21.3433 50.3719 26.2975 53.6463 31.2534 56.9207C31.3944 57.0141 31.5789 57.0141 31.72 56.9207C36.6742 53.6463 41.6301 50.3719 46.5844 47.0974C46.7037 47.0181 46.775 46.8842 46.775 46.741V30.5354C46.775 30.4047 46.6696 30.2988 46.5394 30.2988H45.2652C45.135 30.2988 45.0296 30.4047 45.0296 30.5354V45.8991C45.0296 45.9785 44.9893 46.0532 44.9241 46.0967H44.9257Z" fill="white"/>
<path d="M21.1447 45.4789L24.3612 47.8927C24.5162 48.0094 24.7379 47.8974 24.7379 47.7028V37.1045C24.7379 36.9738 24.8433 36.8679 24.9735 36.8679H28.6582C28.7326 36.8679 28.8024 36.8321 28.8473 36.773L31.2516 33.5437C31.3679 33.3881 31.2563 33.1655 31.0625 33.1655H24.9735C24.8433 33.1655 24.7379 33.0597 24.7379 32.929V28.9277C24.7379 28.797 24.8433 28.6912 24.9735 28.6912H31.2609C31.3911 28.6912 31.4965 28.5853 31.4965 28.4546V25.2253C31.4965 25.0946 31.3911 24.9888 31.2609 24.9888H9.43639C9.24262 24.9888 9.13256 25.2113 9.24727 25.3669L11.6516 28.5962C11.6965 28.6554 11.7663 28.6912 11.8407 28.6912H20.8161C20.9463 28.6912 21.0517 28.797 21.0517 28.9277V45.2859C21.0517 45.3606 21.0873 45.4306 21.1462 45.4758L21.1447 45.4789Z" fill="white"/>
<path d="M24.9022 20.7447H6.23536C6.04314 20.7447 5.93308 20.9626 6.04469 21.1182L7.1639 22.6761C7.20885 22.7383 7.27861 22.7741 7.35457 22.7741H24.9022C25.0325 22.7741 25.1379 22.6683 25.1379 22.5376V20.9797C25.1379 20.849 25.0325 20.7432 24.9022 20.7432V20.7447Z" fill="white"/>
<path d="M31.5308 12.5059L30.4581 14.6862L28.0601 15.0364L29.7962 16.7343L29.3854 19.131L31.5308 17.9996L33.6747 19.131L33.2655 16.7343L35.0001 15.0364L32.602 14.6862L31.5308 12.5059Z" fill="white"/>
<path d="M31.52 10C27.8167 10 24.8032 13.0254 24.8032 16.7434C24.8032 20.4614 27.8167 23.4868 31.52 23.4868C35.2233 23.4868 38.2368 20.4614 38.2368 16.7434C38.2368 13.0254 35.2233 10 31.52 10ZM35.8899 13.2729C36.0961 13.5857 36.2604 13.8845 36.3906 14.1584C35.9705 14.5802 35.5504 15.0004 35.1303 15.4221C35.7132 15.5155 36.2976 15.6104 36.8805 15.7038C36.9673 16.1038 37.0386 16.5909 37.051 17.1465C37.0603 17.5449 37.037 17.906 36.9983 18.2203C37.1812 17.8468 37.3688 17.3737 37.4974 16.8103C37.5625 16.5224 37.6044 16.2516 37.6292 16.0057C37.7346 16.3154 38.0384 17.3473 37.6199 18.5612C37.2029 19.7673 36.3348 20.3867 36.0604 20.5657C36.1798 20.2715 36.2976 19.9416 36.4015 19.5774C36.5317 19.1199 36.6154 18.6966 36.6712 18.3184C36.4883 18.6701 36.2387 19.0841 35.8961 19.5105C35.6326 19.8404 35.3675 20.1128 35.1257 20.3338C34.5087 20.0287 33.8902 19.7253 33.2733 19.4202C33.4484 20.0459 33.622 20.6715 33.7972 21.2956C33.591 21.4076 33.3678 21.5197 33.1275 21.6255C32.5664 21.8729 32.0393 22.0364 31.5727 22.1453C31.9556 22.2138 32.416 22.2636 32.9384 22.2574C33.3043 22.2527 33.6375 22.2216 33.929 22.178C33.6251 22.3865 32.7679 22.9125 31.5603 22.9032C30.2489 22.8923 29.3498 22.2589 29.0661 22.0395C29.4552 22.0332 29.8676 22.0115 30.3001 21.9741C30.6178 21.9461 30.9217 21.9103 31.2116 21.8683C30.8225 21.8091 30.3404 21.6971 29.8133 21.4854C29.4444 21.3376 29.1297 21.1711 28.8677 21.0108C28.9049 20.3104 28.9406 19.6117 28.9778 18.9113C28.4941 19.2879 28.012 19.6646 27.5284 20.0427C27.3734 19.912 27.2153 19.7657 27.0556 19.6008C26.5874 19.1168 26.2573 18.6234 26.0247 18.197C26.0898 18.5409 26.1891 18.9409 26.3456 19.3767C26.496 19.7953 26.6681 20.1532 26.8308 20.4505C26.4355 20.1003 25.8294 19.4576 25.4698 18.4958C25.1644 17.6741 25.1846 17.0095 25.2218 16.7325C25.2729 16.3652 25.4093 16.0633 25.4093 16.0633C25.4698 15.9279 25.5349 15.8205 25.583 15.7474C25.6062 16.0011 25.6512 16.2936 25.7333 16.6111C25.8604 17.0951 26.0356 17.4935 26.1999 17.797C26.1457 17.4764 26.1069 17.078 26.1209 16.6236C26.1379 16.0929 26.2232 15.6416 26.3146 15.2914C26.5301 15.1887 26.775 15.086 27.0478 14.9941C27.4478 14.8603 27.8183 14.7794 28.1376 14.7311C27.7098 14.409 27.2835 14.0868 26.8556 13.7631C27.0029 13.4456 27.206 13.0721 27.485 12.6815C27.7501 12.3095 28.0213 12.0076 28.2632 11.7726C27.902 11.9718 27.4865 12.2411 27.0618 12.6021C26.8138 12.8138 26.5998 13.0254 26.4169 13.2246C26.6433 12.8184 27.1176 12.0932 27.981 11.4847C28.9158 10.8264 29.8335 10.6412 30.3001 10.5805C29.9823 10.7766 29.6505 10.9976 29.3095 11.2466C29.077 11.4162 28.8584 11.5859 28.6538 11.7539C29.432 11.5656 30.2117 11.3758 30.9899 11.1875C31.2844 11.6683 31.5789 12.1492 31.8735 12.6301C32.0889 12.1383 32.306 11.6466 32.5214 11.1563C33.2888 11.3571 34.0561 11.5594 34.8234 11.7602C34.625 11.5921 34.3971 11.4178 34.1413 11.2466C33.7119 10.9602 33.3012 10.7501 32.94 10.5945C32.9632 10.5929 32.9958 10.5898 33.0376 10.5867C33.0919 10.5821 33.1322 10.5789 33.1337 10.5789C33.1771 10.5743 34.2235 10.5914 35.3815 11.617C36.1007 12.2535 36.5193 12.9756 36.7595 13.5141C36.634 13.3616 36.4883 13.2044 36.3193 13.0457C35.845 12.6006 35.3582 12.3111 34.9614 12.1228C35.2528 12.42 35.5768 12.7982 35.8868 13.2698L35.8899 13.2729Z" fill="white"/>
</g>
</g>
<defs>
<clipPath id="clip0_169_17">
<rect width="64" height="64" fill="white"/>
</clipPath>
<clipPath id="clip1_169_17">
<rect width="51" height="47" fill="white" transform="translate(6 10)"/>
</clipPath>
</defs>
</svg>
