<svg width="454" height="460" viewBox="0 0 454 460" fill="none" xmlns="http://www.w3.org/2000/svg">
<g clip-path="url(#clip0_192_69)">
<path fill-rule="evenodd" clip-rule="evenodd" d="M249.461 440.933C247.663 446.323 241.806 459.526 227.672 459.526C211.618 459.526 206.015 442.134 205.742 441.42L205.283 439.752C205.283 439.752 219.119 440.902 226.738 440.902C234.356 440.902 247.37 440.162 249.502 439.752L249.461 440.933Z" fill="black"/>
<path fill-rule="evenodd" clip-rule="evenodd" d="M291.603 432.357L294.92 432.798C290.983 443.057 283.917 454.559 270.034 454.559C256.597 454.559 249.936 446.772 247.093 441.534L244.771 440.11C244.774 440.108 268.013 439.342 291.603 432.357ZM164.219 432.357L160.906 432.798C164.836 443.057 171.907 454.559 185.795 454.559C199.229 454.559 206.487 446.336 209.465 441.534L211.05 440.11C211.047 440.108 187.813 439.342 164.219 432.357Z" fill="black"/>
<path fill-rule="evenodd" clip-rule="evenodd" d="M238.935 442.001C236.761 445.153 235.308 445.005 232.683 445.005C231.371 445.005 229.399 446.094 229.462 448.066C229.503 449.612 230.764 450.904 232.906 450.904C237.648 450.904 241.262 444.276 242.278 441.475C242.278 441.475 245.085 441.353 245.905 441.272C245.905 441.272 240.875 456.242 227.843 456.242C214.782 456.242 209.465 441.433 209.465 441.433C209.465 441.433 220.453 442.113 226.751 442.113C233.049 442.113 237.049 442.084 238.935 442.001ZM289.864 435.415C281.343 437.711 275.294 439.565 260.991 441.306C260.991 441.306 261.437 442.784 264.547 442.618C265.743 442.559 265.896 442.263 266.34 442.183C267.222 442.022 268.578 442.948 268.418 444.504C268.301 445.589 267.37 446.961 264.202 446.961C261.035 446.961 257.334 444.367 255.474 441.965C255.474 441.965 253.57 442.401 251.604 442.512C251.604 442.512 257.689 451.038 269.696 451.038C282.91 451.041 287.787 439.236 289.864 435.415Z" fill="#FFF22D"/>
<path fill-rule="evenodd" clip-rule="evenodd" d="M281.003 443.749C281.003 441.682 280.365 439.768 279.281 438.183C274.656 439.272 269.367 440.271 261.619 441.233C261.564 441.464 261.513 441.696 261.466 441.928C261.933 442.307 262.838 442.714 264.547 442.623C265.743 442.564 265.896 442.268 266.34 442.188C267.222 442.027 268.578 442.953 268.418 444.509C268.301 445.594 267.37 446.966 264.202 446.966C263.388 446.966 262.529 446.795 261.684 446.494C262.099 447.933 262.833 449.235 263.806 450.32C265.73 450.806 267.709 451.049 269.694 451.043C273.93 451.043 277.305 449.832 280.01 448.055C280.665 446.714 281.005 445.242 281.003 443.749Z" fill="#FADE2F"/>
<path fill-rule="evenodd" clip-rule="evenodd" d="M280.868 443.75C280.872 441.772 280.269 439.841 279.141 438.217C274.576 439.28 269.359 440.263 261.769 441.21C261.697 441.476 261.638 441.745 261.593 442.017C262.088 442.367 262.981 442.707 264.552 442.619C265.748 442.559 265.901 442.263 266.345 442.183C267.227 442.022 268.583 442.948 268.423 444.505C268.306 445.589 267.375 446.961 264.207 446.961C263.442 446.961 262.641 446.808 261.847 446.546C262.283 447.996 263.043 449.298 264.052 450.377C265.759 450.792 267.644 451.041 269.701 451.041C273.821 451.041 277.128 449.897 279.795 448.198C280.5 446.822 280.868 445.297 280.868 443.75Z" fill="#FBE02F"/>
<path fill-rule="evenodd" clip-rule="evenodd" d="M280.731 443.749C280.731 441.703 280.093 439.804 278.998 438.248C274.5 439.296 269.341 440.263 261.914 441.197C261.834 441.49 261.761 441.793 261.712 442.1C262.228 442.419 263.1 442.696 264.55 442.621C265.745 442.561 265.899 442.266 266.342 442.185C267.224 442.024 268.581 442.95 268.42 444.507C268.303 445.591 267.372 446.963 264.205 446.963C263.456 446.953 262.712 446.83 262 446.597C262.451 448.053 263.242 449.363 264.285 450.434C265.932 450.813 267.735 451.041 269.696 451.041C273.699 451.041 276.936 449.957 279.561 448.341C280.332 446.934 280.735 445.354 280.731 443.749Z" fill="#FCE22F"/>
<path fill-rule="evenodd" clip-rule="evenodd" d="M165.964 435.415C174.48 437.711 180.532 439.565 194.835 441.306C194.835 441.306 194.389 442.784 191.279 442.618C190.08 442.559 189.927 442.263 189.484 442.183C188.605 442.022 187.245 442.948 187.411 444.504C187.525 445.588 188.454 446.961 191.621 446.961C194.788 446.961 198.49 444.367 200.347 441.965C200.347 441.965 202.259 442.4 204.225 442.512C204.225 442.512 198.137 451.038 186.13 451.038C172.916 451.041 168.037 439.236 165.964 435.415ZM226.583 365.181C272.109 365.181 322.554 337.236 357.922 296.947C361.748 292.594 368.244 284.338 383.639 284.338C399.031 284.338 419.497 298.366 417.088 323.911C415.334 342.536 388.712 384.509 343.186 410.383C297.659 436.258 255.736 441.825 226.585 441.825C197.434 441.825 155.511 436.258 109.982 410.383C64.4553 384.509 37.8362 342.536 36.0775 323.911C33.6677 298.366 54.134 284.338 69.5291 284.338C84.9242 284.338 91.4221 292.597 95.2456 296.947C130.614 337.236 181.056 365.181 226.583 365.181Z" fill="#FFF22D"/>
<path d="M226.583 363.544C248.642 363.544 271.896 356.888 294.005 345.402C317.041 333.436 338.81 316.246 356.695 295.873C358.667 293.635 361.315 290.387 365.551 287.645C369.813 284.885 375.571 282.701 383.639 282.701C384.474 282.701 385.366 282.748 386.303 282.833C393.724 283.536 401.882 287.124 408.175 293.37C414.473 299.622 418.922 308.524 418.922 319.836C418.922 321.169 418.857 322.578 418.714 324.067C417.705 334.762 408.821 352.829 393.12 371.204C380.798 385.619 364.251 400.29 343.995 411.8C321.075 424.824 299.063 432.743 279.115 437.399C244.56 445.475 208.608 445.475 174.052 437.399C154.107 432.743 132.095 424.824 109.175 411.8C88.9188 400.288 72.372 385.616 60.0507 371.204C44.3495 352.829 35.4627 334.762 34.4536 324.067C34.3184 322.661 34.2491 321.249 34.2461 319.836C34.2461 308.524 38.6947 299.622 44.9954 293.37C51.2858 287.124 59.4412 283.536 66.8599 282.833C67.8015 282.748 68.6938 282.701 69.529 282.701C77.5911 282.701 83.3574 284.885 87.6141 287.645C91.8526 290.387 94.5036 293.635 96.4724 295.873C114.358 316.246 136.131 333.434 159.163 345.402C181.271 356.888 204.521 363.544 226.583 363.544ZM226.583 366.818C203.984 366.818 180.216 360.03 157.651 348.31C134.277 336.165 112.176 318.708 94.0134 298.026C92.1587 295.915 89.6503 292.854 85.8346 290.382C82.0397 287.925 76.8596 285.98 69.5264 285.98C68.7384 285.979 67.9507 286.015 67.1659 286.086C60.4424 286.719 53.0341 289.993 47.2963 295.686C41.5662 301.375 37.5197 309.492 37.5197 319.839C37.5197 321.151 37.5793 322.459 37.7012 323.761C38.6558 333.882 47.2729 351.231 62.5306 369.085C74.6339 383.245 90.8902 397.66 110.786 408.967C133.395 421.815 155.111 429.623 174.794 434.217C191.771 438.184 209.148 440.189 226.583 440.19C244.017 440.189 261.394 438.184 278.371 434.217C298.059 429.623 319.773 421.815 342.379 408.967C362.275 397.66 378.534 383.245 390.637 369.08C405.897 351.226 414.514 333.885 415.466 323.761C415.588 322.464 415.648 321.151 415.648 319.839C415.648 309.494 411.599 301.378 405.869 295.686C400.134 289.993 392.723 286.719 385.999 286.086C385.214 286.015 384.427 285.979 383.639 285.98C376.308 285.98 371.125 287.925 367.33 290.382C363.515 292.854 361.004 295.915 359.154 298.026C340.991 318.708 318.894 336.165 295.517 348.305C272.955 360.029 249.184 366.818 226.583 366.818Z" fill="black"/>
<path fill-rule="evenodd" clip-rule="evenodd" d="M90.1305 300.95L89.5987 300.348C85.9749 296.188 81.0101 290.483 69.1532 290.483C62.2377 290.483 54.4065 294.182 49.2031 299.902C45.3121 304.172 40.8998 311.681 41.9841 323.162C43.4627 338.848 68.3698 379.529 112.724 404.739C148.474 425.055 186.654 435.361 226.209 435.361C265.764 435.361 303.942 425.055 339.695 404.739C384.046 379.529 408.956 338.848 410.434 323.162C411.513 311.681 407.106 304.174 403.21 299.902C398.012 294.182 390.176 290.483 383.265 290.483C371.411 290.483 366.446 296.188 362.817 300.348L362.291 300.95C324.172 344.362 272.029 371.327 226.209 371.327C180.392 371.327 128.246 344.365 90.1305 300.95Z" fill="#C23227"/>
<path fill-rule="evenodd" clip-rule="evenodd" d="M372.837 249.745C372.837 227.901 390.538 210.192 412.384 210.192C434.231 210.192 451.937 227.901 451.937 249.745C451.937 271.586 434.231 289.292 412.384 289.292C390.538 289.292 372.837 271.586 372.837 249.745Z" fill="#FFF22D"/>
<path d="M371.195 249.745C371.195 238.371 375.805 228.073 383.262 220.618C390.71 213.163 401.01 208.553 412.385 208.553C423.759 208.553 434.057 213.163 441.512 220.618C448.967 228.073 453.574 238.371 453.574 249.745C453.574 261.12 448.965 271.415 441.512 278.868C434.06 286.32 423.759 290.929 412.385 290.929C401.01 290.929 390.715 286.32 383.262 278.868C379.431 275.048 376.392 270.509 374.321 265.511C372.25 260.513 371.188 255.155 371.195 249.745ZM374.472 249.745C374.472 260.212 378.718 269.69 385.576 276.551C392.435 283.412 401.916 287.656 412.382 287.656C422.849 287.656 432.327 283.41 439.193 276.551C442.719 273.035 445.515 268.856 447.42 264.256C449.326 259.656 450.304 254.725 450.298 249.745C450.304 244.765 449.327 239.833 447.421 235.233C445.515 230.632 442.719 226.453 439.193 222.937C432.33 216.076 422.849 211.832 412.382 211.832C401.916 211.832 392.437 216.076 385.576 222.937C382.05 226.453 379.253 230.631 377.347 235.232C375.441 239.833 374.464 244.765 374.472 249.745Z" fill="black"/>
<path fill-rule="evenodd" clip-rule="evenodd" d="M2.0625 249.807C2.0625 227.969 19.7714 210.26 41.6151 210.26C63.4562 210.26 81.1651 227.969 81.1651 249.807C81.1651 271.653 63.4562 289.36 41.6151 289.36C19.7714 289.36 2.0625 271.653 2.0625 249.807Z" fill="#FFF22D"/>
<path d="M0.425781 249.807C0.425781 238.438 5.03524 228.14 12.4903 220.685C16.3111 216.855 20.851 213.818 25.8492 211.748C30.8474 209.678 36.2053 208.616 41.6152 208.623C52.9871 208.623 63.2851 213.235 70.7375 220.685C74.5674 224.505 77.6046 229.045 79.6746 234.042C81.7445 239.04 82.8065 244.398 82.7994 249.807C82.7994 261.182 78.1899 271.48 70.7375 278.935C66.9175 282.765 62.3782 285.803 57.3804 287.874C52.3827 289.945 47.025 291.008 41.6152 291.002C30.2407 291.002 19.9453 286.387 12.4903 278.935C5.03524 271.482 0.425781 261.179 0.425781 249.807ZM3.69935 249.807C3.69254 254.787 4.6701 259.72 6.57583 264.321C8.48156 268.922 11.2779 273.101 14.8041 276.618C18.3207 280.144 22.4994 282.94 27.1001 284.846C31.7008 286.752 36.6328 287.73 41.6126 287.723C52.0818 287.723 61.5575 283.477 68.4185 276.618C71.9447 273.101 74.741 268.922 76.6467 264.321C78.5524 259.72 79.53 254.787 79.5232 249.807C79.5232 239.341 75.2795 229.862 68.4185 223.001C61.5575 216.14 52.0818 211.897 41.6126 211.897C36.6328 211.89 31.7008 212.868 27.1001 214.774C22.4994 216.679 18.3207 219.475 14.8041 223.001C11.2787 226.518 8.48292 230.696 6.57722 235.296C4.67153 239.897 3.69351 244.828 3.69935 249.807Z" fill="black"/>
<path fill-rule="evenodd" clip-rule="evenodd" d="M423.212 143.367L423.43 132.776C426.662 135.217 432.818 135.313 436.421 131.463C438.078 129.705 439.004 127.02 438.856 124.213C438.653 120.931 437.254 117.837 434.924 115.516C421.604 102.536 409.83 89.5607 409.83 89.5607C408.639 87.6412 406.678 86.2223 405.61 85.745C403.942 85.0032 398.183 82.3677 393.789 89.0497C389.807 95.1066 390.399 103.677 391.115 106.79L403.612 123.77C407.874 129.173 419.887 140.69 423.212 143.367ZM156.909 33.2305C172.613 27.9673 186.945 23.6225 206.267 21.9053L156.909 33.2305Z" fill="black"/>
<path fill-rule="evenodd" clip-rule="evenodd" d="M156.909 33.2745C172.613 28.0036 186.944 23.6665 206.267 21.9467L209.211 20.284C198.407 11.7914 187.689 6.01465 177.02 6.01465C170.32 6.01465 156.701 10.5593 153.641 34.5793L156.909 33.2745ZM296.3 33.2745C280.594 28.0036 266.267 23.6665 246.945 21.9467L244.001 20.284C254.802 11.7914 265.518 6.01465 276.187 6.01465C282.89 6.01465 296.513 10.5593 299.569 34.5793L296.3 33.2745ZM213.717 19.5317C216.91 19.3683 224.279 19.2049 227.228 19.2049C230.173 19.2049 238.315 19.594 240.097 19.7289L213.717 19.5317Z" fill="black"/>
<path fill-rule="evenodd" clip-rule="evenodd" d="M208.85 21.1298C216.748 5.98886 223.985 0.474121 227.988 0.474121C232.994 0.474121 238.856 8.44274 243.45 18.6966L244.423 21.0053L240.426 20.6758C237.705 20.1882 230.172 20.1052 227.228 20.1052C224.278 20.1052 217.892 20.1052 214.043 20.432L208.85 21.1298Z" fill="black"/>
<path fill-rule="evenodd" clip-rule="evenodd" d="M193.395 379.645L186.324 406.026L173.141 374.221L164.937 372.022L154.94 409.325L163.84 411.712L170.965 385.118L184.358 417.208L192.352 419.351L202.347 382.042L193.395 379.645ZM224.123 384.358L213.983 383.827L211.965 422.391L222.102 422.923L224.123 384.358ZM233.228 384.029L233.939 389.11L244.755 387.585L249.417 420.749L259.471 419.335L254.807 386.177L265.46 384.677L264.752 379.601L233.228 384.029ZM337.847 368.307C342.757 376.914 341.769 383.176 334.195 387.549L330.602 389.622L316.4 365.033L320.281 362.79C329.347 357.558 334.459 362.214 337.847 368.307ZM318.094 358.11L305.008 365.664L324.382 399.224L337.372 391.725C350.889 383.917 352.14 372.138 346.84 362.73C340.441 351.537 329.936 351.275 318.094 358.11ZM293.579 405.626L289.724 393.767L301.169 390.047L299.563 385.113L288.121 388.83L284.829 378.704L296.588 374.888L295.003 370.006L273.54 376.981L285.473 413.706L309.142 406.02L307.537 401.087L293.579 405.626ZM146.652 363.075L135.215 383.705C131.765 389.925 128.209 393.863 122.391 390.503C116.617 387.308 117.953 382.535 121.485 376.156L132.946 355.475L123.711 350.357L111.605 372.193C104.928 384.242 113.348 391.663 119.875 395.279C126.902 399.175 137.106 402.072 143.726 390.127L155.884 368.19L146.652 363.075ZM140.11 136.231V317.056L226.579 372.639L313.046 317.056L313.158 136.517C310.416 134.063 304.657 128.691 300.123 125.915H152.639C148.87 128.556 141.389 134.841 140.11 136.231Z" fill="#FFF22D"/>
<path d="M141.747 136.231V316.166L226.58 370.699L311.412 316.166L311.518 136.517H314.797L314.686 317.056V317.943L313.931 318.431L227.461 374.016L226.58 374.585L225.695 374.016L139.228 318.431L138.471 317.943V136.231H141.747Z" fill="black"/>
<path d="M312.066 137.741C311.285 137.04 311.874 137.562 311.047 136.815H311.036C308.087 134.148 303.143 129.681 299.268 127.31L300.974 124.522C305.158 127.087 310.219 131.658 313.241 134.384H313.231L314.255 135.297L312.066 137.741Z" fill="black"/>
<path d="M300.123 127.552H152.639V124.278H300.123V127.552Z" fill="black"/>
<path d="M153.579 127.259C151.812 128.499 149.319 130.46 147.039 132.335C144.37 134.535 141.96 136.631 141.312 137.339L138.907 135.126C139.628 134.335 142.176 132.112 144.967 129.814C147.392 127.816 149.978 125.775 151.695 124.571L153.579 127.259Z" fill="black"/>
<path fill-rule="evenodd" clip-rule="evenodd" d="M232.691 213.575C232.089 213.31 229.936 215.046 228.953 216.602C227.97 218.158 227.682 220.164 229.075 220.9C230.468 221.637 232.221 220.682 232.642 218.241C232.883 216.807 233.35 213.86 232.691 213.575ZM216.139 218.239C216.499 220.693 218.307 221.637 219.7 220.898C221.093 220.161 220.808 218.156 219.825 216.599C218.839 215.043 216.813 213.308 216.209 213.572C215.553 213.86 215.934 216.848 216.139 218.239ZM224.818 242.293C227.723 237.525 228.932 232.57 228.932 232.57H220.621C220.621 232.57 221.952 237.647 224.818 242.293ZM226.25 206.475L232.963 194.792L238.203 206.475H246.887C241.645 211.391 239.515 218.812 239.515 223.728V229.131C239.515 231.426 238.372 235.19 238.372 235.19C238.372 235.19 245.889 240.936 247.051 241.903C247.541 242.313 248.06 242.552 247.705 243.545C247.108 245.237 242.026 247.501 241.484 247.963C240.34 248.946 240.029 249.589 240.364 250.588C240.693 251.566 241.645 251.732 243.611 251.076C245.578 250.422 249.671 248.295 253.116 246.819C256.55 245.346 261.136 245.67 261.136 245.67V239.125H248.203V218.161L245.907 214.501L251.642 204.346L257.367 214.558L255.077 218.158V229.131H261.709V218.158L259.419 214.558L265.149 204.4L270.879 214.558L268.589 218.158V229.131H275.221V218.158L272.931 214.558L278.661 204.4L284.391 214.558L282.095 218.158L282.165 239.107L269.159 239.112V248.739C272.108 251.519 274.894 257.791 274.894 261.555C274.894 265.324 272.438 266.961 272.438 266.961C273.252 269.91 273.092 271.135 272.762 273.84C272.428 276.6 268.993 280.878 268.993 280.878V330.811C268.993 334.212 261.136 333.888 261.136 330.977V282.027C256.713 277.116 244.594 273.347 244.594 273.347C240.172 277.765 237.391 285.466 237.391 285.466C239.357 286.779 242.307 285.466 243.451 284.154C244.594 282.846 246.89 282.517 248.203 283.334C249.51 284.154 249.839 284.483 249.347 286.449C248.856 288.41 248.034 291.674 248.034 293.962C248.034 296.257 250.659 295.759 252.62 295.928C256.553 296.257 257.206 300.675 256.882 303.131C256.553 305.588 255.409 310.833 255.409 314.104C255.409 317.375 255.569 320.653 255.899 322.459C256.223 324.256 256.882 326.223 256.713 328.518C256.49 331.623 254.586 332.121 252.62 330.155C250.659 328.189 223.306 299.038 223.306 299.038C221.506 304.929 229.036 315.089 231.495 318.199C233.951 321.315 233.785 323.605 231.661 325.732C229.529 327.859 225.435 329.006 224.618 330.975C223.799 332.941 226.585 338.832 232.315 346.199C238.045 353.571 225.762 358.484 218.393 359.959C211.023 361.433 211.023 356.351 211.516 353.571C212.004 350.785 212.004 349.148 211.843 346.691C211.68 344.24 209.387 340.801 206.274 336.699C203.161 332.611 203.161 328.842 204.474 319.343C205.784 309.849 205.457 303.785 205.457 303.785C205.457 303.785 202.181 303.951 197.431 303.785C192.682 303.624 188.752 300.856 188.425 289.391C188.098 277.926 187.826 250.583 187.061 247.74C186.298 244.902 183.24 244.355 181.93 244.031C180.62 243.701 180.524 241.735 181.834 241.081C185.245 239.374 189.354 235.185 187.826 232.565C186.298 229.943 180.293 230.487 176.254 232.454C172.215 234.42 167.956 238.674 166.864 239.88C165.772 241.081 164.898 241.081 165.007 239.769C165.116 238.456 164.244 232.236 163.699 230.052C163.155 227.868 161.186 223.722 160.532 222.63C159.879 221.538 160.532 221.103 161.624 221.538C162.716 221.977 165.118 222.96 167.411 223.614C169.704 224.267 171.886 223.178 172.978 220.994C174.07 218.81 176.143 214.117 177.235 212.042C178.327 209.967 180.075 210.403 181.494 210.732C182.915 211.059 184.225 211.933 185.533 212.478C186.843 213.025 187.935 212.916 188.371 212.26C188.809 211.606 189.356 211.386 190.119 209.746C190.881 208.109 191.865 208.875 191.974 209.528C195.888 233.017 206.059 234.096 206.059 234.096C204.531 238.023 200.928 244.248 200.056 245.779C199.182 247.304 198.855 249.377 198.637 251.019C198.419 252.655 199.182 268.152 200.274 273.838C201.369 279.513 204.863 277.334 205.952 275.586C207.042 273.838 210.429 266.634 210.429 266.634C210.429 266.634 211.304 264.668 211.304 263.026C211.304 261.389 208.463 257.786 207.807 256.694C207.153 255.605 204.751 253.421 204.751 247.96C204.751 242.503 209.664 238.679 211.413 237.26C213.158 235.841 213.158 233.88 212.94 232.679C212.173 228.454 207.698 219.575 205.517 216.19C203.332 212.807 199.076 206.364 199.076 206.364H207.919L213.597 194.572L219.82 206.418L226.25 206.475ZM261.133 265.978V259.265C261.133 259.265 259.331 256.479 254.908 256.479C250.49 256.479 247.871 257.791 247.871 258.935C247.871 260.741 251.8 265.978 261.133 265.978ZM146.883 181.335H306.411V192.216H146.883V181.335ZM146.883 175.742V132.402H306.411V175.742H146.883Z" fill="#C23227"/>
<path fill-rule="evenodd" clip-rule="evenodd" d="M275.011 177.031V169.633H263.424V164.863H272.881V143.901H264.199L261.25 138.171L258.301 143.901H249.624V164.863H259.076V169.633H236.379V164.863H245.834V143.901H237.155L234.206 138.171L231.259 143.901H222.579V164.863H232.032V169.633H208.891V164.863H218.346V143.901H209.664L206.717 138.171L203.771 143.901H195.089V164.863H204.541V169.633L186.246 169.683L168.016 165.423L171.691 177.031H275.011Z" fill="#FFF22D"/>
<path fill-rule="evenodd" clip-rule="evenodd" d="M174.312 164.482L186.537 167.486L193.095 149.079L193.097 144.438L174.312 164.482ZM203.813 20.7353C184.874 22.4188 173.22 26.4446 157.827 31.604C158.971 24.9816 160.512 21.0569 163.186 17.1582C162.971 20.5823 165.767 24.2294 171.331 24.2294C176.895 24.2294 179.992 21.0206 179.992 19.0933C179.992 17.1712 178.823 14.3853 175.827 14.3853C172.831 14.3853 172.19 16.5253 172.403 17.3813C172.618 18.2399 171.975 18.4526 171.121 18.6679C170.263 18.8806 167.91 17.594 168.766 14.6006C169.705 11.3089 173.687 9.51904 178.392 9.51904C178.389 9.51385 189.59 9.06769 203.813 20.7353ZM295.519 31.7362C280.127 26.5717 267.948 22.5485 249.01 20.8624C257.728 14.7874 265.87 9.62799 274.817 9.62799C279.522 9.62799 283.507 11.4178 284.443 14.7095C285.299 17.7056 282.944 18.987 282.088 18.7717C281.237 18.5564 280.594 18.3437 280.806 17.4877C281.019 16.6343 280.376 14.4916 277.382 14.4916C274.389 14.4916 273.219 17.2724 273.219 19.1997C273.219 21.127 276.314 24.3357 281.878 24.3357C287.442 24.3357 290.238 20.686 290.025 17.2646C292.697 21.1659 294.375 25.1139 295.519 31.7362ZM215.483 17.2153C214.975 18.0272 214.528 18.6316 213.984 19.5369C218.395 19.3501 222.808 19.242 227.223 19.2126C230.115 19.2126 238.089 19.5991 239.838 19.7262C237.015 13.1921 231.69 4.17031 227.97 4.17031C227.236 4.17031 225.612 3.789 222.557 7.3064C222.557 7.3064 222.082 8.86018 224.022 8.56187C226.481 8.18575 227.413 10.7252 227.231 11.9885C226.8 14.9274 223.379 17.7652 219.952 17.7652C216.531 17.7652 215.483 17.2153 215.483 17.2153Z" fill="#FFF22D"/>
<path fill-rule="evenodd" clip-rule="evenodd" d="M50.5259 123.77L63.0236 106.79C63.7421 103.677 64.3335 95.1069 60.3492 89.05C55.9551 82.368 50.1913 85.0034 48.5234 85.7453C47.4547 86.2226 45.4988 87.6415 44.303 89.561C44.303 89.561 32.3138 102.811 19.0483 115.851C17.204 117.661 15.1236 121.091 14.955 124.211C14.7994 127.018 15.9018 129.817 17.5516 131.575C21.1598 135.42 27.4786 135.217 30.7055 132.776L30.9234 143.367C34.2592 140.69 46.2666 129.173 50.5259 123.77Z" fill="black"/>
<path fill-rule="evenodd" clip-rule="evenodd" d="M226.582 99.0259C297.768 99.0259 338.304 165.872 347.115 177.615C362.84 198.577 382.043 215.575 404.325 209.93C437.073 201.635 435.33 153.107 435.33 153.107C427.473 147.426 413.99 140.275 389.474 105.503C365.454 71.4418 311.083 20.9038 226.582 20.9038C142.076 20.9038 87.7043 71.4418 63.6869 105.503C39.1714 140.272 25.6933 147.426 17.8336 153.107C17.8336 153.107 16.0878 201.635 48.8417 209.93C71.1212 215.575 90.3294 198.577 106.051 177.615C114.858 165.872 155.399 99.0259 226.582 99.0259Z" fill="#FFF22D"/>
<path d="M226.583 97.3892C292.775 97.3892 332.662 154.238 345.64 172.736C346.815 174.411 347.772 175.773 348.42 176.634C356.171 186.974 364.77 196.328 374.142 202.374C383.327 208.304 393.283 211.041 403.926 208.345C433.007 200.979 433.756 160.184 433.702 153.953C433.079 153.509 432.389 153.035 431.666 152.537C423.427 146.851 410.185 137.715 388.136 106.442C374.352 86.8888 350.472 61.8598 316.554 44.2443C291.88 31.4301 261.889 22.5407 226.58 22.5407C191.271 22.5407 161.275 31.4301 136.603 44.2443C102.685 61.8598 78.8102 86.8862 65.0233 106.442C42.9696 137.72 29.73 146.853 21.4864 152.539C20.7653 153.037 20.0805 153.509 19.4554 153.95C19.4009 160.178 20.1506 200.973 49.234 208.343C59.8795 211.041 69.8299 208.301 79.0177 202.372C88.3871 196.325 96.986 186.971 104.742 176.632C105.388 175.771 106.345 174.409 107.52 172.736C120.503 154.241 160.393 97.3892 226.583 97.3892ZM226.583 100.665C162.089 100.665 122.933 156.464 110.197 174.619C109.268 175.956 108.322 177.281 107.357 178.593C99.3906 189.215 90.5219 198.844 80.7894 205.126C70.8727 211.526 60.0793 214.467 48.4454 211.518C14.3972 202.893 16.1922 153.206 16.1974 153.061L16.2207 152.259L16.8822 151.779C17.7771 151.133 18.6694 150.516 19.637 149.852C27.6912 144.293 40.6324 135.37 62.3542 104.561C76.3693 84.6866 100.638 59.2451 135.112 41.3416C160.208 28.307 190.708 19.2671 226.585 19.2671C262.459 19.2671 292.959 28.307 318.058 41.3416C352.529 59.2451 376.801 84.684 390.816 104.561C412.535 135.362 425.474 144.293 433.525 149.847C434.493 150.513 435.391 151.133 436.285 151.779L436.949 152.259L436.97 153.061C436.975 153.203 438.768 202.893 404.722 211.518C393.091 214.465 382.298 211.523 372.383 205.126C362.646 198.844 353.78 189.215 345.811 178.593C345.009 177.527 344.099 176.219 342.968 174.619C330.229 156.464 291.076 100.665 226.583 100.665Z" fill="black"/>
<path fill-rule="evenodd" clip-rule="evenodd" d="M226.582 92.7201C295.205 92.7201 336.045 150.931 349.476 170.059C350.352 171.328 351.245 172.586 352.156 173.83C370.313 198.037 386.876 207.848 402.774 203.819C425.77 197.993 428.597 166.347 428.916 156.786L428.926 156.425L428.633 156.223C420.548 150.643 407 141.307 384.323 109.137C370.77 89.9186 319.342 27.2124 226.582 27.2124C133.823 27.2124 82.3975 89.9186 68.8441 109.137C46.3182 141.079 32.1838 150.838 24.5887 156.083L24.293 156.285L24.3033 156.645C24.6328 166.243 27.4887 198.014 50.3881 203.819C66.2917 207.85 82.8489 198.037 101.001 173.83C101.665 172.948 102.602 171.613 103.689 170.061C117.112 150.931 157.954 92.7201 226.582 92.7201Z" fill="#C23227"/>
<path fill-rule="evenodd" clip-rule="evenodd" d="M78.9351 119.534L71.7706 128.071L85.2046 155.839L56.378 146.418L50.207 153.769L79.7937 178.593L84.263 173.268L63.3765 155.673L91.3912 164.775L94.3354 161.268L80.9869 134.512L101.995 152.135L108.519 144.358L78.9351 119.534ZM116.337 113.721L109.637 120.904L102.773 107.638L116.337 113.721ZM100.729 96.1911L94.1434 103.252L112.643 140.044L117.16 135.204L112.135 125.464L121.089 115.861L131.193 120.151L138.645 112.162L100.729 96.1911ZM145.903 61.235L160.377 84.3964L128.124 72.3449L120.916 76.848L141.384 109.599L149.197 104.72L134.609 81.3692L167.212 93.4623L174.229 89.0733L153.765 56.3246L145.903 61.235ZM268.13 80.1994L272.19 68.4099L283.564 72.3293L285.255 67.4216L273.881 63.5073L277.341 53.4376L289.03 57.4634L290.703 52.6101L269.362 45.2666L256.792 81.7791L280.322 89.88L282.008 84.9774L268.13 80.1994ZM334.19 77.7585L330.709 81.5327L338.831 88.8424L316.424 113.734L323.968 120.525L346.374 95.6386L354.374 102.834L357.806 99.0237L334.19 77.7585ZM345.277 135.746L354.825 127.739L362.558 136.95L366.529 133.614L358.802 124.4L366.955 117.557L374.902 127.028L378.83 123.728L364.33 106.44L334.743 131.267L350.737 150.327L354.709 146.994L345.277 135.746ZM390.028 145.583C392.718 148.573 392.728 152.132 389.652 154.9C386.575 157.668 382.705 157.074 379.753 153.792L378.015 151.865L387.774 143.082L390.028 145.583ZM384.884 164.612C384.959 164.695 390.863 167.621 397.382 161.748C402.834 156.838 401 150.101 395.314 143.785L384.791 132.104L356.091 157.945L362.885 165.489L374.28 155.224L377.644 158.954L370.379 175.216L379.006 182.155L384.884 164.612ZM239.633 42.0294L239.355 57.8032L224.183 57.5412L224.461 41.7622L214.311 41.5884L213.639 80.1994L223.787 80.3784L224.095 62.7239L239.262 62.9911L238.953 80.6403L249.111 80.8193L249.781 42.2031L239.633 42.0294ZM294.607 99.4232C301.805 103.747 309.675 103.055 313.338 96.9589C316.033 92.6996 316.053 89.1796 312.847 82.8815C311.986 81.0554 310.928 79.7688 310.202 78.1527C308.798 75.481 307.486 73.3202 308.728 71.258C310.056 69.048 313.156 68.8897 315.989 70.5914C318.961 72.3786 320.188 75.3383 320.787 77.3953L325.464 75.372C324.03 71.5667 321.908 68.1349 317.109 65.253C308.85 60.2908 302.119 61.6007 299.322 66.2595C296.495 70.9623 297.297 74.8455 299.398 78.8505C299.398 78.8505 300.749 81.1669 301.535 82.6844C303.379 85.8179 305.538 89.727 304.038 92.2223C302.194 95.2936 298.977 95.9758 295.88 94.0511C291.909 91.5298 290.98 88.6219 290.145 85.7712L285.022 87.9838C286.153 91.8592 288.801 95.9343 294.607 99.4232ZM189.326 44.0526C176.68 46.7452 168.398 56.0237 171.129 68.6018C172.686 75.3902 178.771 87.9423 197.959 83.862C203.266 82.8478 206.171 80.6948 208.97 78.0464L205.437 74.0154C204.153 75.4836 202.156 77.6184 197.743 78.5548C188.478 80.5262 182.942 72.9856 181.565 66.4981C179.526 56.9083 185.116 50.2496 191.494 48.8955C195.966 47.9436 198.724 49.1264 200.467 49.8346L200.521 49.8242L201.696 44.9009C198.643 43.6687 194.996 42.8516 189.326 44.0526ZM394.059 108.276C393.527 105.986 392.777 96.2041 396.492 91.0421C399.921 86.2848 403.047 87.8956 404.725 88.6401C405.48 88.9747 407.745 90.4429 408.191 93.3377C408.429 94.8915 407.942 97.1898 406.741 98.8758C404.391 101.929 399.044 103.955 399.044 103.955C399.044 103.955 405.895 117.376 420.413 130.704L420.362 139.762C400.484 120.592 394.059 108.276 394.059 108.276Z" fill="#FFF22D"/>
<path fill-rule="evenodd" clip-rule="evenodd" d="M404.029 105.506C405.995 108.893 410.986 117.181 423.479 128.887C425.551 130.83 430.718 132.449 433.637 129.173C434.757 127.912 435.47 126.115 435.359 124.024C435.227 121.622 433.748 118.818 432.324 117.596C429.831 115.459 419.09 104.611 411.391 96.0896C411.225 97.6433 409.866 100.24 409.866 100.24C408.833 101.698 407.541 103.791 404.029 105.506ZM33.7657 139.217L33.7139 130.662C48.2374 117.331 55.0958 103.954 55.0958 103.954C55.0958 103.954 49.7497 101.929 47.3996 98.8754C46.196 97.1894 45.7057 94.8885 45.9469 93.3374C46.3983 90.4425 48.6576 88.9769 49.4099 88.6397C51.0882 87.8952 54.2139 86.2818 57.6379 91.0417C61.355 96.2037 60.3823 105.918 59.8531 108.208C59.8583 108.208 53.0881 120.001 33.7657 139.217Z" fill="#FFF22D"/>
<path fill-rule="evenodd" clip-rule="evenodd" d="M49.862 105.506C47.901 108.894 42.9076 117.181 30.4151 128.888C28.3426 130.831 23.1754 132.449 20.2624 129.173C19.1392 127.912 18.4233 126.115 18.5348 124.024C18.6645 121.622 20.1457 118.818 21.5698 117.596C24.0626 115.459 34.8041 104.611 42.4978 96.0898C42.6664 97.6436 44.0256 100.24 44.0256 100.24C45.0606 101.698 46.355 103.791 49.862 105.506Z" fill="#FFF22D"/>
<path fill-rule="evenodd" clip-rule="evenodd" d="M9.50781 250.137C9.50781 232.368 23.912 217.964 41.678 217.964C59.4492 217.964 73.8508 232.368 73.8508 250.137C73.8508 267.91 59.4466 282.307 41.678 282.307C23.912 282.307 9.50781 267.908 9.50781 250.137Z" fill="#C23227"/>
<path fill-rule="evenodd" clip-rule="evenodd" d="M58.9849 226.838C59.5374 227.279 60.9329 228.425 60.9329 228.425C63.7214 230.921 66.2324 233.839 67.6876 237.33C69.5293 241.722 63.8563 248.323 62.1962 249.875C54.6919 256.876 50.0279 256.759 47.3484 257.146C44.6662 257.524 42.9776 255.869 43.0346 253.862C43.2058 247.955 47.3925 237.888 48.5727 236.028C49.3457 234.812 50.6764 234.036 50.6764 234.036C53.4442 233.26 56.1289 232.07 57.5219 230.493C58.92 228.918 58.9849 226.838 58.9849 226.838ZM32.0648 222.591C35.1154 221.564 38.3112 221.033 41.5301 221.02C46.5572 221.02 51.3457 221.959 55.4182 224.537C56.4506 225.188 56.7618 226.015 56.7618 227.183C56.7618 230.967 50.7932 232.257 46.8192 232.257C42.8505 232.257 37.9764 230.677 34.5265 229.603C31.0739 228.521 30.3061 226.506 30.3061 225.616C30.3009 224.731 30.965 222.96 32.0648 222.591ZM19.3389 268.948C15.2871 264.946 12.3975 257.753 12.3975 250.157C12.3975 247.213 12.8307 244.375 13.64 241.696C13.64 241.696 14.3222 240.474 14.9862 241.52C15.4583 242.259 16.099 243.019 16.6749 244.033C17.2559 245.047 20.4024 247.436 20.1093 249.322C19.0017 256.435 20.0003 265.929 20.3324 267.485C20.667 269.034 20.1793 269.778 19.3389 268.948ZM20.1119 244.552C18.6774 243.761 16.968 240.108 16.4103 239.019C16.0134 238.238 16.0368 236.059 16.5789 235.102C18.9472 230.913 22.3219 227.097 26.6953 225.071C27.196 224.84 27.9716 224.817 27.9716 226.057C27.9716 226.747 28.314 227.836 28.3269 228.508C28.3425 229.167 28.6408 230.596 27.7511 231.707C26.8665 232.812 22.9471 239.675 21.9925 243.556C21.7772 244.44 21.5463 245.348 20.1119 244.552ZM42.1527 279.282C41.9452 279.272 41.7377 279.287 41.5301 279.287C36.1684 279.287 30.3009 277.256 26.8224 275.311C23.2298 273.301 21.8835 264.105 21.8835 259.402C21.8835 244.228 28.1376 235.105 29.1336 233.33C30.1297 231.561 32.345 231.338 34.0077 231.779C35.6704 232.225 36.3111 232.56 38.2177 233.136C39.2501 233.45 41.3174 233.88 42.8686 234.215C44.4198 234.55 46.0773 234.879 45.0839 237.761C44.0878 240.638 40.7468 247.61 40.381 255.854C40.049 263.296 41.0451 270.717 42.7337 275.267C43.831 278.219 43.8128 279.337 42.1527 279.282ZM49.7919 278.102C48.1266 278.639 47.3588 277.454 46.5832 276.561C43.5923 273.148 42.8193 263.957 42.8193 262.741C42.8193 261.514 43.2603 260.188 44.1111 260.167C51.382 259.986 56.5517 257.861 61.2909 253.965C66.03 250.069 68.0818 245.667 68.515 244.806C68.9456 243.945 69.8795 244.098 70.1051 245.343C70.2893 246.357 70.6654 248.196 70.6654 250.155C70.6628 263.374 61.7578 274.221 49.7919 278.102Z" fill="#FFF22D"/>
<path fill-rule="evenodd" clip-rule="evenodd" d="M444.916 250.137C444.916 232.368 430.511 217.964 412.745 217.964C394.972 217.964 380.575 232.368 380.575 250.137C380.575 267.91 394.974 282.307 412.745 282.307C430.511 282.307 444.916 267.908 444.916 250.137Z" fill="#C23227"/>
<path fill-rule="evenodd" clip-rule="evenodd" d="M396.897 230.49C398.289 232.067 400.974 233.258 403.742 234.033C403.742 234.033 405.075 234.809 405.846 236.026C407.026 237.885 411.21 247.953 411.389 253.859C411.443 255.864 409.757 257.522 407.073 257.143C404.393 256.759 399.727 256.873 392.227 249.872C390.565 248.321 384.892 241.719 386.736 237.328C388.186 233.836 390.702 230.918 393.493 228.423C393.493 228.423 394.881 227.276 395.439 226.835C395.436 226.838 395.504 228.918 396.897 230.49ZM424.123 225.616C424.123 226.506 423.352 228.521 419.902 229.603C416.447 230.677 411.578 232.257 407.607 232.257C403.63 232.257 397.662 230.97 397.662 227.183C397.662 226.015 397.976 225.188 399.005 224.537C403.078 221.959 407.866 221.02 412.893 221.02C416.211 221.02 419.383 221.606 422.361 222.591C423.453 222.96 424.123 224.731 424.123 225.616ZM434.089 267.482C434.418 265.926 435.417 256.432 434.312 249.32C434.019 247.434 437.165 245.045 437.746 244.03C438.325 243.016 438.963 242.256 439.432 241.517C440.096 240.474 440.781 241.693 440.781 241.693C441.609 244.437 442.028 247.289 442.026 250.155C442.026 257.75 439.134 264.943 435.08 268.945C434.244 269.778 433.754 269.034 434.089 267.482ZM432.426 243.558C431.474 239.678 427.552 232.812 426.665 231.709C425.778 230.599 426.076 229.17 426.086 228.511C426.107 227.839 426.447 226.75 426.447 226.06C426.447 224.82 427.222 224.843 427.718 225.074C432.096 227.097 435.474 230.913 437.839 235.105C438.382 236.062 438.408 238.241 438.005 239.022C437.453 240.111 435.741 243.763 434.306 244.554C432.877 245.348 432.644 244.44 432.426 243.558ZM411.69 275.269C413.376 270.72 414.375 263.298 414.04 255.856C413.674 247.613 410.336 240.643 409.34 237.764C408.341 234.882 410.004 234.552 411.555 234.218C413.106 233.883 415.174 233.452 416.211 233.138C418.11 232.56 418.751 232.225 420.416 231.782C422.073 231.341 424.291 231.564 425.29 233.333C426.289 235.107 432.54 244.23 432.54 259.405C432.54 264.105 431.196 273.301 427.601 275.314C424.125 277.259 418.258 279.29 412.893 279.29C412.686 279.29 412.478 279.275 412.276 279.285C410.611 279.337 410.59 278.219 411.69 275.269ZM383.761 250.155C383.761 248.194 384.137 246.355 384.324 245.343C384.547 244.098 385.478 243.945 385.909 244.806C386.344 245.667 388.396 250.069 393.133 253.965C397.874 257.861 403.042 259.983 410.312 260.167C411.158 260.188 411.604 261.516 411.604 262.741C411.604 263.957 410.834 273.148 407.84 276.561C407.065 277.454 406.3 278.639 404.629 278.102C392.661 274.221 383.761 263.374 383.761 250.155Z" fill="#FFF22D"/>
<path d="M380.71 249.968C380.705 245.721 381.539 241.514 383.165 237.59C384.791 233.666 387.176 230.102 390.183 227.102C396.035 221.25 404.12 217.632 413.046 217.632C421.972 217.632 430.06 221.25 435.909 227.102C441.761 232.952 445.377 241.037 445.377 249.968C445.377 258.899 441.759 266.982 435.909 272.831C430.06 278.681 421.977 282.299 413.046 282.299C408.799 282.304 404.592 281.47 400.668 279.845C396.744 278.221 393.179 275.837 390.178 272.831C387.172 269.831 384.788 266.267 383.163 262.344C381.539 258.42 380.705 254.215 380.71 249.968ZM381.039 249.968C381.039 258.808 384.622 266.808 390.411 272.6C396.206 278.395 404.206 281.977 413.049 281.977C421.892 281.977 429.889 278.395 435.686 272.605C441.476 266.811 445.058 258.811 445.058 249.968C445.058 241.125 441.476 233.128 435.681 227.333C432.712 224.357 429.184 221.996 425.3 220.387C421.416 218.778 417.253 217.953 413.049 217.959C408.845 217.954 404.681 218.78 400.797 220.389C396.913 221.998 393.385 224.359 390.417 227.336C387.44 230.304 385.079 233.832 383.469 237.716C381.86 241.6 381.034 245.764 381.039 249.968Z" fill="#FDE62F"/>
</g>
<defs>
<clipPath id="clip0_192_69">
<rect width="454" height="460" fill="white"/>
</clipPath>
</defs>
</svg>
