<svg width="566" height="566" viewBox="0 0 566 566" fill="none" xmlns="http://www.w3.org/2000/svg">
<g clip-path="url(#clip0_216_259)">
<path d="M361.605 4.713C335.546 22.804 310.422 31.231 282.544 31.231C254.663 31.231 229.539 22.804 203.478 4.713L196.689 0L189.799 4.563C160.344 24.067 136.412 27.635 99.895 27.635C87.305 27.635 73.768 25.259 60.75 20.763L52.078 17.769L46.802 25.273C43.996 29.264 41.911 31.799 39.896 34.25C37.413 37.269 35.067 40.122 32.312 44.55L27.9 51.642L32.922 58.316C55.239 87.974 63.661 118.486 63.661 147.208C63.661 200.768 34.376 248.097 11.311 272.03L3 280.654L11.477 289.114C16.024 293.652 24.123 302.055 30.821 309.095L30.552 312.786L30.493 313.458C30.2181 318.576 30.0794 323.701 30.077 328.827C30.077 383.22 46.154 428.443 77.971 463.42C114.807 503.918 172.405 528.095 240.478 531.858C257.382 547.253 274.561 560.031 275.33 560.602L282.607 565.999L289.875 560.583C290.638 560.013 307.724 547.243 324.608 531.855C392.679 528.093 450.275 503.917 487.112 463.418C518.927 428.441 535.006 383.218 535.006 328.829C535.006 323.784 534.866 318.66 534.59 313.456L534.582 313.335L534.521 312.668C534.521 312.668 534.281 309.365 534.263 309.094C540.463 302.576 548.825 293.883 553.605 289.111L562.079 280.651L553.771 272.028C530.709 248.093 501.423 200.76 501.423 147.2C501.423 118.48 509.843 87.969 532.157 58.314L537.178 51.643L532.771 44.552C530.015 40.12 527.669 37.267 525.186 34.246C523.172 31.796 521.087 29.262 518.284 25.272L513.009 17.765L504.337 20.76C491.316 25.256 477.78 27.632 465.191 27.632C428.671 27.632 404.738 24.064 375.286 4.56L368.394 0L361.605 4.713Z" fill="black"/>
<path d="M282.59 550.813C282.59 550.813 263.132 536.379 245.553 519.959C130.553 515.191 35.3929 450.7 42.6639 314.105C43.0939 310.501 42.7289 310.744 43.3529 304.595C36.7589 297.618 25.8479 286.235 20.0859 280.485C61.3359 237.68 109.47 139.769 42.6589 50.9852C47.0519 43.9222 50.2319 41.5802 56.7699 32.2802C70.1239 36.8912 84.9729 39.8202 99.8929 39.8202C138.206 39.8202 164.365 36.0182 196.526 14.7212C221.952 32.3712 249.525 43.4152 282.544 43.4152C315.561 43.4152 343.132 32.3712 368.556 14.7212C400.716 36.0172 426.875 39.8202 465.191 39.8202C480.107 39.8202 494.96 36.8922 508.314 32.2802C514.851 41.5792 518.031 43.9222 522.421 50.9852C455.613 139.769 503.75 237.68 544.996 280.485C539.235 286.235 528.322 297.618 521.729 304.595C522.35 310.743 521.989 310.501 522.418 314.105C529.689 450.7 434.525 515.189 319.532 519.959C301.952 536.38 282.59 550.813 282.59 550.813Z" fill="#E2B900"/>
<path d="M64.4784 305.958H62.8554L62.1634 311.835L61.6644 315.618C58.9804 368.236 72.0994 410.744 100.648 442.057C133.394 477.977 186.446 498.442 254.069 501.244C254.135 501.246 255.205 501.252 255.205 501.252C275.495 501.362 294.658 501.466 310.962 501.246C378.636 498.443 431.688 477.977 464.433 442.058C492.983 410.746 506.101 368.239 503.425 315.715C503.418 315.62 502.916 311.819 502.916 311.819L502.23 306.028L500.6 305.959H64.4784V305.958Z" fill="black"/>
<path d="M66.0998 309.61L65.7708 312.399C65.7708 312.399 65.3088 315.904 65.3038 315.904C65.0817 320.213 64.9697 324.528 64.9678 328.843C64.9678 374.419 77.8528 411.631 103.348 439.596C109.441 446.281 116.264 452.415 123.769 457.991V309.61H66.0998ZM499.782 315.997L499.307 312.381L498.979 309.61H441.311V457.992C448.818 452.417 455.641 446.282 461.733 439.597C487.233 411.627 500.117 374.407 500.117 328.89C500.116 324.666 500.007 320.367 499.782 315.997Z" fill="#004B95"/>
<path d="M187.278 309.61H123.77V457.992C141.343 471.052 162.684 481.027 187.278 487.745V309.61ZM377.804 309.61V487.742C402.404 481.022 423.742 471.048 441.311 457.992V309.61H377.804Z" fill="#A4234B"/>
<path d="M221.665 401.004C221.665 379.021 233.32 359.762 250.787 349.062V309.61H187.277V487.745C206.53 493.005 227.779 496.261 250.787 497.426V452.948C233.321 442.248 221.665 422.988 221.665 401.004ZM314.295 309.61V349.061C331.761 359.761 343.417 379.02 343.417 401.003C343.417 422.986 331.761 442.247 314.295 452.947V497.423C337.306 496.255 358.554 492.998 377.804 487.741V309.61H314.295Z" fill="#004B95"/>
<path d="M314.295 349.062V309.61H250.787V349.061C260.031 343.395 270.902 340.127 282.539 340.127C294.177 340.128 305.05 343.397 314.295 349.062ZM250.787 452.948V497.426C251.908 497.484 253.024 497.547 254.154 497.593L255.224 497.599C275.496 497.708 294.643 497.812 310.861 497.595C312.012 497.547 313.15 497.482 314.295 497.424V452.948C305.049 458.611 294.176 461.881 282.539 461.881C270.903 461.882 260.031 458.612 250.787 452.948Z" fill="#A4234B"/>
<path d="M251.474 412.051C240.459 402.019 240.425 381.633 243.384 368.092C244.206 364.321 245.241 360.63 246.309 356.411C233.359 366.944 225.086 383.009 225.086 401.004C225.076 408.386 226.493 415.701 229.259 422.545C230.238 422.673 231.233 422.742 232.243 422.742C240.751 422.742 247.698 418.812 251.474 412.051ZM310.624 416.448C308.739 426.077 298.441 433.292 288.737 439.079C278.738 445.044 262.611 448.126 250.476 448.688C259.634 454.857 270.667 458.46 282.539 458.46C304.208 458.46 323.075 446.463 332.857 428.754C331.144 414.58 317.669 412.915 310.624 416.448Z" fill="#E2B900"/>
<path d="M246.021 445.36C258.007 445.453 276.428 442.438 286.987 436.141C300.635 427.997 311.238 419.308 306.2 407.262C303.654 401.175 295.19 394.13 284.217 401.901C283.516 410.893 272.416 418.824 264.446 417.802C260.408 417.284 257.024 416.01 254.205 414.165C249.726 421.818 241.707 426.162 232.246 426.162C231.78 426.162 231.315 426.149 230.856 426.123C234.473 433.549 239.645 440.109 246.021 445.36ZM282.392 365.199C291.895 361.259 305.067 366.38 315.103 371.983C324.578 377.277 334.471 387.156 339.893 397.531C338.107 367.574 313.376 343.806 283.036 343.55C273.97 349.504 275.208 360.728 282.392 365.199Z" fill="#E2B900"/>
<path d="M280.785 401.858C269.02 393.277 269.743 379.775 274.805 371.754C276.047 369.786 277.493 368.239 279.099 367.055C272.259 361.595 270.89 351.001 277.516 343.763C267.887 344.594 258.626 347.854 250.601 353.238C248.092 364.028 244.898 373.882 245.058 385.152C245.273 400.34 251.56 412.704 264.88 414.412C271.096 415.208 280.065 408.594 280.785 401.858Z" fill="#E2B900"/>
<path d="M339.757 406.288C336.478 394.401 324.692 381.26 313.435 374.972C299.556 367.218 284.373 363.002 277.697 373.583C273.412 380.373 272.816 391.589 282.537 398.899C295.751 389.772 306.306 398.647 309.354 405.945C310.333 408.282 310.829 410.505 310.916 412.62C318.715 409.876 331.391 411.643 335.294 423.815C337.703 418.247 339.21 412.33 339.757 406.288Z" fill="#E2B900"/>
<path d="M230.165 239.72H190.003V296.19H202.24V272.892H218.904V260.969H202.24V251.722H230.754V239.722L230.165 239.72ZM253.521 267.954C253.521 285.635 263.239 297.058 278.279 297.058C288.084 297.058 295.146 292.746 299.267 284.246L299.503 283.758L289.211 277.654L288.91 278.158C285.974 283.073 283.18 284.9 278.596 284.9C271.107 284.9 266.074 278.089 266.074 267.954C266.074 257.502 270.843 251.009 278.518 251.009C282.976 251.009 286.11 252.869 288.102 256.697L288.362 257.196L299.69 251.969L299.428 251.429C295.449 243.201 288.273 238.852 278.674 238.852C263.864 238.851 253.521 250.819 253.521 267.954ZM367.759 265.606C371.179 263.181 373.186 259.375 373.186 254.921C373.186 245.403 366.409 239.72 355.06 239.72H329.116V296.19H354.821C367.507 296.19 375.078 289.296 375.078 277.75C375.078 272.342 372.377 268.01 367.759 265.606ZM341.115 251.09H354.586C360.082 251.09 360.786 253.602 360.786 255.791C360.786 258.903 358.939 260.416 355.139 260.416H341.116L341.115 251.09ZM355.216 284.506H341.115V271.389H355.216C360.204 271.389 362.527 273.461 362.527 277.908C362.527 282.224 360 284.506 355.216 284.506ZM367.925 37.8421C340.566 54.3921 312.635 62.4481 282.537 62.4701C252.442 62.4491 224.514 54.3921 197.154 37.8421L196.24 37.2891L195.311 37.8151C164.144 55.4281 136.722 58.8731 99.8879 58.8731C91.0359 58.8731 81.9039 57.9841 72.7419 56.2301L68.7939 55.4741L70.8219 58.9451C108.664 123.703 95.2299 186.311 77.2979 227.431L76.1829 229.988H488.898L487.781 227.431C469.85 186.311 456.416 123.703 494.256 58.9451L496.284 55.4741L492.338 56.2301C483.177 57.9841 474.043 58.8731 465.192 58.8731C428.358 58.8731 400.935 55.4281 369.769 37.8151L368.839 37.2891L367.925 37.8421Z" fill="black"/>
<path d="M155.957 57.3148C138.671 61.4158 120.759 62.5258 99.8895 62.5258C91.9965 62.5258 83.8795 61.7088 75.7305 60.3478C85.3995 77.6368 91.5515 94.7448 95.0415 111.327H155.958L155.957 57.3148ZM280.715 111.327V66.0908C258.86 65.8418 238.12 61.4058 217.906 52.6528V111.327H280.715ZM96.7695 173.277C93.8925 193.106 88.1515 211.08 81.7035 226.334H155.958V173.277H96.7695ZM217.906 226.334H280.715V173.277H217.906V226.334Z" fill="white"/>
<path d="M217.906 111.327V52.653C210.602 49.491 203.364 45.78 196.172 41.478C182.418 49.146 169.377 54.131 155.958 57.314V111.326H95.041C97.4908 122.967 98.7251 134.83 98.724 146.726C98.724 155.877 98.008 164.746 96.77 173.276H155.958V226.333H217.907V173.276H280.716V111.326L217.906 111.327Z" fill="#DB2F36"/>
<path d="M368.906 41.478L368.818 41.529V226.333H390.595V51.614C383.461 48.909 376.287 45.592 368.906 41.478ZM325.263 60.38V226.334H347.04V52.709C339.969 55.7716 332.693 58.3349 325.263 60.38ZM284.365 66.091V226.334H303.485V64.747C297.143 65.5662 290.759 66.015 284.365 66.091ZM412.376 58.023V226.334H434.152V61.296C426.662 60.601 419.453 59.544 412.376 58.023ZM466.357 146.727C466.357 119.691 472.608 90.283 489.351 60.348C481.202 61.708 473.083 62.526 465.192 62.526C462.032 62.526 458.963 62.489 455.931 62.431V226.334H483.378C474.155 204.516 466.357 177.15 466.357 146.727Z" fill="#FFDF00"/>
<path d="M434.153 61.2958V226.334H455.93V62.4308C448.343 62.2868 441.119 61.9418 434.153 61.2958ZM303.486 64.7468V226.334H325.263V60.3798C318.115 62.3429 310.839 63.8021 303.486 64.7468ZM347.041 52.7088V226.334H368.818V41.5288C361.612 45.8348 354.359 49.5478 347.041 52.7088ZM390.596 51.6138V226.334H412.375V58.0228C404.964 56.4397 397.684 54.2972 390.596 51.6138Z" fill="#DB2F36"/>
</g>
<defs>
<clipPath id="clip0_216_259">
<rect width="559.078" height="566" fill="white" transform="translate(3)"/>
</clipPath>
</defs>
</svg>
