<svg width="496" height="496" viewBox="0 0 496 496" fill="none" xmlns="http://www.w3.org/2000/svg">
<path d="M274.391 201.536H311.357C312.623 201.536 313.649 202.56 313.649 203.826V385.57C313.649 387.453 315.804 388.523 317.312 387.408L348.595 364.04C349.168 363.603 349.514 362.925 349.514 362.202V203.841C349.514 202.575 350.54 201.551 351.806 201.551H439.096C439.82 201.551 440.498 201.204 440.935 200.632L464.318 169.37C465.449 167.863 464.363 165.708 462.479 165.708H274.406C273.139 165.708 272.114 166.733 272.114 167.999V199.261C272.114 200.526 273.139 201.551 274.406 201.551L274.391 201.536Z" fill="white"/>
<path d="M309.744 126.853V141.934C309.744 143.199 310.769 144.224 312.036 144.224H482.696C483.435 144.224 484.128 143.877 484.55 143.275L495.435 128.194C496.521 126.687 495.435 124.578 493.581 124.578H312.036C310.769 124.578 309.744 125.602 309.744 126.868V126.853Z" fill="white"/>
<path d="M252.048 434.807L267.139 423.929C267.742 423.492 268.089 422.814 268.089 422.076V329.584C268.089 328.318 267.066 327.294 265.799 327.294H250.707C249.44 327.294 248.415 328.318 248.415 329.584V432.953C248.415 434.822 250.527 435.891 252.035 434.807H252.048Z" fill="white"/>
<path d="M378.702 369.991L249.259 455.131C248.49 455.628 247.51 455.628 246.742 455.131L117.3 369.991C116.651 369.57 116.274 368.846 116.274 368.078V219.344C116.274 218.079 115.249 217.054 113.983 217.054H101.59C100.324 217.054 99.2988 218.079 99.2988 219.344V376.229C99.2988 377.615 99.9923 378.911 101.153 379.679C149.351 411.378 197.534 443.078 245.731 474.777C247.103 475.681 248.897 475.681 250.269 474.777C298.452 443.078 346.65 411.378 394.833 379.679C395.994 378.911 396.687 377.615 396.687 376.229V219.344C396.687 218.079 395.662 217.054 394.396 217.054H382.003C380.737 217.054 379.712 218.079 379.712 219.344V368.078C379.712 368.846 379.32 369.57 378.687 369.991H378.702Z" fill="white"/>
<path d="M147.422 364.01L178.704 387.378C180.212 388.508 182.367 387.423 182.367 385.54V282.939C182.367 281.673 183.393 280.649 184.659 280.649H220.495C221.218 280.649 221.897 280.302 222.334 279.73L245.717 248.467C246.847 246.961 245.762 244.806 243.877 244.806H184.659C183.393 244.806 182.367 243.782 182.367 242.516V203.781C182.367 202.515 183.393 201.491 184.659 201.491H245.807C247.074 201.491 248.099 200.466 248.099 199.201V167.939C248.099 166.673 247.074 165.648 245.807 165.648H33.5531C31.6686 165.648 30.5982 167.803 31.7138 169.31L55.0967 200.572C55.5339 201.144 56.2123 201.491 56.936 201.491H144.226C145.492 201.491 146.517 202.515 146.517 203.781V362.142C146.517 362.865 146.864 363.543 147.437 363.98L147.422 364.01Z" fill="white"/>
<path d="M183.965 124.562H2.42081C0.551385 124.562 -0.519014 126.672 0.566457 128.178L11.4513 143.26C11.8885 143.862 12.5669 144.209 13.3057 144.209H183.965C185.232 144.209 186.257 143.184 186.257 141.919V126.837C186.257 125.572 185.232 124.547 183.965 124.547V124.562Z" fill="white"/>
<path d="M248.43 44.8022L237.997 65.91L214.675 69.2999L231.56 85.7372L227.565 108.939L248.43 97.986L269.28 108.939L265.3 85.7372L282.17 69.2999L258.847 65.91L248.43 44.8022Z" fill="white"/>
<path d="M248.325 20.5454C212.309 20.5454 183.001 49.8342 183.001 85.8274C183.001 121.821 212.309 151.109 248.325 151.109C284.342 151.109 313.649 121.821 313.649 85.8274C313.649 49.8342 284.342 20.5454 248.325 20.5454ZM290.824 52.2297C292.83 55.258 294.428 58.1507 295.694 60.8024C291.608 64.8853 287.523 68.9532 283.437 73.0361C289.106 73.9401 294.789 74.8592 300.458 75.7631C301.302 79.6351 301.996 84.3509 302.116 89.7295C302.207 93.5865 301.981 97.0818 301.604 100.125C303.383 96.5093 305.207 91.9292 306.458 86.4752C307.091 83.688 307.498 81.0664 307.74 78.686C308.765 81.6841 311.72 91.6731 307.649 103.425C303.594 115.101 295.151 121.097 292.483 122.83C293.644 119.982 294.789 116.788 295.8 113.263C297.066 108.833 297.88 104.735 298.423 101.074C296.644 104.479 294.217 108.487 290.885 112.615C288.322 115.809 285.744 118.446 283.392 120.585C277.392 117.632 271.376 114.694 265.376 111.741C267.08 117.798 268.768 123.855 270.472 129.896C268.467 130.981 266.296 132.066 263.959 133.09C258.502 135.486 253.376 137.068 248.838 138.122C252.562 138.785 257.039 139.267 262.12 139.207C265.678 139.162 268.919 138.86 271.753 138.439C268.798 140.457 260.461 145.55 248.717 145.459C235.963 145.354 227.219 139.222 224.46 137.098C228.244 137.037 232.254 136.827 236.46 136.465C239.551 136.194 242.506 135.847 245.325 135.44C241.541 134.868 236.852 133.783 231.727 131.734C228.138 130.303 225.078 128.691 222.53 127.139C222.892 120.359 223.239 113.594 223.601 106.815C218.897 110.461 214.208 114.107 209.505 117.768C207.997 116.502 206.459 115.086 204.906 113.489C200.353 108.803 197.142 104.027 194.881 99.8992C195.514 103.229 196.479 107.101 198.002 111.319C199.464 115.372 201.137 118.837 202.72 121.715C198.876 118.325 192.981 112.103 189.484 102.792C186.514 94.837 186.71 88.4037 187.072 85.7219C187.569 82.1663 188.896 79.2434 188.896 79.2434C189.484 77.9327 190.117 76.8931 190.584 76.185C190.81 78.6408 191.248 81.4732 192.047 84.5467C193.283 89.2323 194.986 93.0893 196.584 96.0272C196.057 92.9235 195.68 89.0666 195.816 84.6673C195.981 79.5297 196.811 75.1605 197.7 71.7706C199.796 70.7762 202.178 69.7818 204.831 68.8929C208.721 67.5972 212.324 66.8138 215.429 66.3467C211.268 63.228 207.123 60.1093 202.962 56.9755C204.394 53.902 206.369 50.2861 209.082 46.5045C211.66 42.9037 214.299 39.9808 216.651 37.7058C213.138 39.6343 209.098 42.2408 204.967 45.7361C202.555 47.7851 200.474 49.8341 198.695 51.7626C200.896 47.8303 205.509 40.8095 213.907 34.9186C222.998 28.5456 231.923 26.7527 236.46 26.1651C233.37 28.0635 230.144 30.2029 226.827 32.6135C224.565 34.2557 222.44 35.8979 220.45 37.525C228.018 35.702 235.601 33.864 243.169 32.0409C246.034 36.6964 248.898 41.3519 251.763 46.0073C253.858 41.2464 255.969 36.4855 258.064 31.7396C265.527 33.6832 272.99 35.6418 280.452 37.5853C278.522 35.9582 276.306 34.2707 273.819 32.6135C269.643 29.8413 265.648 27.8073 262.135 26.3007C262.361 26.2856 262.678 26.2555 263.085 26.2254C263.612 26.1802 264.004 26.15 264.019 26.15C264.441 26.1048 274.618 26.2706 285.88 36.1992C292.875 42.3613 296.945 49.352 299.282 54.5649C298.061 53.0885 296.644 51.5668 295 50.03C290.387 45.7211 285.653 42.9188 281.794 41.0957C284.628 43.9734 287.779 47.6345 290.794 52.1995L290.824 52.2297Z" fill="white"/>
</svg>
