<svg width="496" height="455" viewBox="0 0 496 455" fill="none" xmlns="http://www.w3.org/2000/svg">
<g clip-path="url(#clip0_192_59)">
<path d="M274.259 180.99H311.225C312.492 180.99 313.517 182.015 313.517 183.28V365.024C313.517 366.908 315.673 367.977 317.18 366.862L348.463 343.495C349.036 343.058 349.383 342.38 349.383 341.657V183.296C349.383 182.03 350.408 181.005 351.674 181.005H438.964C439.688 181.005 440.366 180.659 440.803 180.086L464.186 148.824C465.317 147.318 464.231 145.163 462.347 145.163H274.274C273.008 145.163 271.982 146.188 271.982 147.453V178.715C271.982 179.981 273.008 181.005 274.274 181.005L274.259 180.99Z" fill="white"/>
<path d="M309.612 106.307V121.389C309.612 122.654 310.637 123.679 311.904 123.679H482.564C483.303 123.679 483.996 123.332 484.418 122.729L495.303 107.648C496.389 106.141 495.303 104.032 493.449 104.032H311.904C310.637 104.032 309.612 105.057 309.612 106.322V106.307Z" fill="white"/>
<path d="M251.917 414.261L267.008 403.383C267.611 402.946 267.957 402.268 267.957 401.53V309.039C267.957 307.773 266.934 306.749 265.667 306.749H250.575C249.308 306.749 248.283 307.773 248.283 309.039V412.408C248.283 414.276 250.395 415.346 251.903 414.261H251.917Z" fill="white"/>
<path d="M378.57 349.446L249.127 434.585C248.359 435.082 247.379 435.082 246.61 434.585L117.168 349.446C116.519 349.024 116.143 348.301 116.143 347.533V198.799C116.143 197.533 115.117 196.509 113.851 196.509H101.459C100.192 196.509 99.167 197.533 99.167 198.799V355.683C99.167 357.07 99.8605 358.365 101.021 359.134C149.219 390.833 197.402 422.532 245.6 454.232C246.972 455.136 248.766 455.136 250.137 454.232C298.32 422.532 346.518 390.833 394.701 359.134C395.862 358.365 396.555 357.07 396.555 355.683V198.799C396.555 197.533 395.53 196.509 394.264 196.509H381.871C380.605 196.509 379.58 197.533 379.58 198.799V347.533C379.58 348.301 379.188 349.024 378.555 349.446H378.57Z" fill="white"/>
<path d="M147.29 343.465L178.572 366.833C180.08 367.962 182.236 366.878 182.236 364.994V262.393C182.236 261.128 183.261 260.103 184.527 260.103H220.363C221.086 260.103 221.765 259.757 222.202 259.184L245.585 227.922C246.716 226.415 245.63 224.261 243.746 224.261H184.527C183.261 224.261 182.236 223.236 182.236 221.971V183.236C182.236 181.97 183.261 180.945 184.527 180.945H245.675C246.942 180.945 247.967 179.921 247.967 178.655V147.393C247.967 146.128 246.942 145.103 245.675 145.103H33.4213C31.5368 145.103 30.4664 147.257 31.582 148.764L54.9649 180.026C55.4021 180.599 56.0805 180.945 56.8041 180.945H144.094C145.36 180.945 146.386 181.97 146.386 183.236V341.597C146.386 342.32 146.732 342.998 147.305 343.435L147.29 343.465Z" fill="white"/>
<path d="M183.834 104.017H2.28897C0.41955 104.017 -0.65085 106.126 0.434621 107.633L11.3195 122.714C11.7567 123.317 12.4351 123.663 13.1738 123.663H183.834C185.1 123.663 186.125 122.639 186.125 121.373V106.292C186.125 105.026 185.1 104.002 183.834 104.002V104.017Z" fill="white"/>
<path d="M248.298 24.2568L237.866 45.3646L214.543 48.7545L231.428 65.1918L227.433 88.3938L248.298 77.4406L269.148 88.3938L265.168 65.1918L282.038 48.7545L258.716 45.3646L248.298 24.2568Z" fill="white"/>
<path d="M248.193 0C212.177 0 182.869 29.2887 182.869 65.282C182.869 101.275 212.177 130.564 248.193 130.564C284.21 130.564 313.518 101.275 313.518 65.282C313.518 29.2887 284.21 0 248.193 0ZM290.693 31.6843C292.698 34.7126 294.296 37.6053 295.562 40.257C291.477 44.3399 287.391 48.4078 283.305 52.4907C288.974 53.3947 294.658 54.3137 300.326 55.2177C301.17 59.0897 301.864 63.8055 301.985 69.1841C302.075 73.0411 301.849 76.5364 301.472 79.5798C303.251 75.9639 305.075 71.3838 306.326 65.9298C306.96 63.1425 307.367 60.521 307.608 58.1406C308.633 61.1387 311.588 71.1276 307.517 82.8793C303.462 94.5556 295.019 100.552 292.351 102.285C293.512 99.4371 294.658 96.243 295.668 92.7175C296.934 88.2881 297.748 84.1901 298.291 80.529C296.512 83.9339 294.085 87.9416 290.753 92.0697C288.19 95.2637 285.612 97.9003 283.26 100.04C277.26 97.0868 271.245 94.1488 265.244 91.1959C266.948 97.2525 268.636 103.309 270.34 109.351C268.335 110.435 266.164 111.52 263.827 112.545C258.37 114.94 253.244 116.522 248.706 117.577C252.43 118.24 256.907 118.722 261.988 118.662C265.546 118.616 268.787 118.315 271.621 117.893C268.667 119.912 260.33 125.004 248.585 124.914C235.831 124.809 227.087 118.677 224.328 116.552C228.112 116.492 232.122 116.281 236.329 115.92C239.419 115.648 242.374 115.302 245.193 114.895C241.409 114.323 236.721 113.238 231.595 111.189C228.007 109.757 224.946 108.145 222.398 106.594C222.76 99.8137 223.107 93.049 223.469 86.2692C218.765 89.9152 214.076 93.5613 209.373 97.2223C207.865 95.9568 206.327 94.5406 204.775 92.9435C200.222 88.2579 197.01 83.4819 194.749 79.3538C195.382 82.6834 196.347 86.5555 197.87 90.774C199.332 94.8268 201.006 98.292 202.589 101.17C198.744 97.7798 192.849 91.5574 189.352 82.2465C186.382 74.2916 186.578 67.8583 186.94 65.1765C187.437 61.6209 188.764 58.698 188.764 58.698C189.352 57.3872 189.985 56.3477 190.452 55.6396C190.679 58.0954 191.116 60.9278 191.915 64.0013C193.151 68.6869 194.855 72.5439 196.453 75.4818C195.925 72.3781 195.548 68.5212 195.684 64.1219C195.85 58.9843 196.679 54.6151 197.568 51.2252C199.664 50.2308 202.046 49.2364 204.699 48.3475C208.589 47.0518 212.192 46.2684 215.298 45.8013C211.137 42.6826 206.991 39.5639 202.83 36.4301C204.262 33.3566 206.237 29.7407 208.951 25.9591C211.529 22.3583 214.167 19.4354 216.519 17.1604C213.006 19.0889 208.966 21.6954 204.835 25.1907C202.423 27.2397 200.342 29.2887 198.563 31.2172C200.764 27.2849 205.378 20.2641 213.775 14.3732C222.866 8.00017 231.791 6.20728 236.329 5.6197C233.238 7.51805 230.012 9.65745 226.695 12.068C224.434 13.7103 222.308 15.3525 220.318 16.9796C227.886 15.1566 235.469 13.3185 243.037 11.4955C245.902 16.151 248.766 20.8065 251.631 25.4619C253.726 20.701 255.837 15.9401 257.932 11.1942C265.395 13.1377 272.858 15.0964 280.32 17.0399C278.391 15.4127 276.174 13.7253 273.687 12.068C269.511 9.29586 265.516 7.26192 262.003 5.7553C262.229 5.74023 262.546 5.7101 262.953 5.67997C263.48 5.63477 263.872 5.60464 263.888 5.60464C264.31 5.55944 274.486 5.72517 285.748 15.6538C292.743 21.8159 296.813 28.8066 299.15 34.0195C297.929 32.543 296.512 31.0214 294.869 29.4846C290.255 25.1757 285.522 22.3733 281.662 20.5503C284.496 23.428 287.647 27.0891 290.662 31.6541L290.693 31.6843Z" fill="white"/>
</g>
<defs>
<clipPath id="clip0_192_59">
<rect width="496" height="455" fill="white"/>
</clipPath>
</defs>
</svg>
