<svg width="421" height="101" viewBox="0 0 421 101" fill="none" xmlns="http://www.w3.org/2000/svg">
<g opacity="0.5">
<path fill-rule="evenodd" clip-rule="evenodd" d="M22.9284 0.121177C24.127 0.0217498 30.2931 0 51.3763 0H67.813C79.6583 0.0205806 80.3324 0.118204 82.5826 0.444073L82.7131 0.462959C87.5827 1.16517 91.6686 3.10711 95.0087 6.29811C96.8807 8.09945 98.1702 9.86119 99.3315 12.2203C100.747 15.1021 101.442 17.8286 101.76 21.8834C101.829 22.7534 101.86 36.5986 101.86 50.4532C101.86 64.3055 101.831 78.1764 101.763 79.0464C101.448 83.0367 100.753 85.7865 99.382 88.614C98.0436 91.3853 96.1165 93.8311 93.735 95.7805C91.3536 97.73 88.5753 99.136 85.5942 99.9005C83.3998 100.468 81.4151 100.734 77.9973 100.895C76.7777 100.957 64.0231 100.972 51.2684 100.972C38.5137 100.972 25.7668 100.934 24.5162 100.879C21.5644 100.739 19.2652 100.444 17.1834 99.9083C11.1711 98.3547 6.06772 94.1912 3.39561 88.645C1.99741 85.7476 1.33715 83.0988 0.9876 78.8887C0.886619 77.6925 0.863316 71.5326 0.863316 50.4664C0.863316 47.8854 0.862288 45.5432 0.861355 43.4141C0.859721 39.6885 0.858373 36.6155 0.863316 34.057C0.883172 22.1985 0.979611 21.5331 1.30765 19.27C1.31327 19.2313 1.31896 19.192 1.32472 19.1522C2.0277 14.288 3.96965 10.196 7.17385 6.86982C8.93325 5.04594 10.716 3.74484 12.9764 2.6224C15.9095 1.16206 18.6018 0.480825 22.9284 0.121177ZM35.979 13.4304C39.9554 13.2495 41.2265 13.2052 51.3476 13.2052C61.4718 13.2052 62.7382 13.2495 66.7146 13.4304C70.6839 13.6122 73.3948 14.2406 75.7718 15.1626C78.2264 16.1142 80.3004 17.3881 82.3744 19.4621C84.4484 21.5345 85.7223 23.6147 86.6777 26.067C87.5943 28.4378 88.2235 31.1472 88.4099 35.1165C88.5886 39.0936 88.6352 40.3644 88.6352 50.4905C88.6352 60.6165 88.5886 61.8842 88.4099 65.8613C88.2235 69.8291 87.5943 72.5393 86.6777 74.9108C85.7223 77.3623 84.4484 79.4425 82.3744 81.5149C80.3027 83.5889 78.2256 84.8659 75.7741 85.8183C73.4018 86.7403 70.6893 87.3687 66.72 87.5505C62.7429 87.7315 61.476 87.7757 51.3491 87.7757C41.2238 87.7757 39.9538 87.7315 35.9767 87.5505C32.0082 87.3687 29.298 86.7403 26.9257 85.8183C24.475 84.8659 22.3948 83.5889 20.3231 81.5149C18.2499 79.4425 16.976 77.3623 16.0229 74.91C15.1016 72.5393 14.4732 69.8299 14.2907 65.8605C14.1104 61.8834 14.0654 60.6165 14.0654 50.4905C14.0654 40.3644 14.112 39.0928 14.2891 35.1157C14.4678 31.1479 15.0969 28.4377 16.0213 26.0662C16.9767 23.6147 18.2507 21.5345 20.3247 19.4621C22.3971 17.3889 24.4773 16.115 26.9296 15.1626C29.3003 14.2406 32.0097 13.6122 35.979 13.4304ZM51.3476 13.2052C51.3494 13.2052 51.3512 13.2052 51.353 13.2052H51.3421C51.344 13.2052 51.3458 13.2052 51.3476 13.2052ZM50.1103 19.9239C49.3563 19.9236 48.6577 19.9233 48.0082 19.9243V19.915C41.0592 19.9227 39.7262 19.9693 36.2866 20.1247C32.6513 20.2917 30.6775 20.8976 29.3632 21.4102C27.6233 22.0876 26.3804 22.8954 25.0754 24.2004C23.7704 25.5054 22.961 26.7483 22.2852 28.4882C21.7749 29.8025 21.1675 31.7756 21.0012 35.4109C20.8226 39.3414 20.7868 40.5159 20.7868 50.4726C20.7868 60.4293 20.8226 61.61 21.0012 65.5405C21.1667 69.1758 21.7749 71.1488 22.2852 72.4616C22.9626 74.2024 23.7704 75.4421 25.0754 76.7471C26.3804 78.0521 27.6233 78.8599 29.3632 79.5357C30.6783 80.046 32.6513 80.6535 36.2866 80.8213C40.2171 80.9999 41.3971 81.0388 51.353 81.0388C61.3082 81.0388 62.4889 80.9999 66.4194 80.8213C70.0547 80.655 72.0293 80.0491 73.342 79.5365C75.0828 78.8607 76.3217 78.0528 77.6267 76.7478C78.9317 75.4436 79.7411 74.2047 80.4169 72.4647C80.9272 71.1519 81.5347 69.1789 81.7009 65.5436C81.8796 61.6131 81.9184 60.4324 81.9184 50.4819C81.9184 40.5314 81.8796 39.3507 81.7009 35.4202C81.5355 31.7849 80.9272 29.8119 80.4169 28.4991C79.7396 26.7591 78.9317 25.5163 77.6267 24.2113C76.3225 22.9063 75.082 22.0985 73.342 21.4227C72.0277 20.9123 70.0547 20.3049 66.4194 20.1387C62.4881 19.96 61.3082 19.9243 51.353 19.9243C50.9227 19.9243 50.5088 19.9241 50.1103 19.9239ZM68.7697 26.8693C69.5055 26.3776 70.3706 26.1152 71.2556 26.1152V26.1136C73.7257 26.1136 75.7298 28.1177 75.7298 30.5879C75.7301 31.4729 75.468 32.3381 74.9765 33.074C74.4851 33.81 73.7864 34.3838 72.9689 34.7226C72.1514 35.0615 71.2517 35.1503 70.3837 34.9779C69.5156 34.8054 68.7183 34.3794 68.0924 33.7537C67.4665 33.1281 67.0402 32.3308 66.8674 31.4629C66.6947 30.5949 66.7832 29.6952 67.1218 28.8776C67.4604 28.0599 68.0339 27.361 68.7697 26.8693ZM32.2055 50.4905C32.2055 39.9162 40.7788 31.3429 51.353 31.3429H51.3522C61.9265 31.3429 70.4982 39.9162 70.4982 50.4905C70.4982 61.0647 61.9273 69.6341 51.353 69.6341C40.7788 69.6341 32.2055 61.0647 32.2055 50.4905ZM63.7814 50.4905C63.7814 43.6261 58.2166 38.062 51.353 38.062C44.4886 38.062 38.9246 43.6261 38.9246 50.4905C38.9246 57.3541 44.4886 62.9189 51.353 62.9189C58.2166 62.9189 63.7814 57.3541 63.7814 50.4905Z" fill="white"/>
<path d="M133.453 13.9925C127.253 16.6288 120.435 24.0687 118.283 33.4265C115.552 45.2729 126.904 50.2756 127.831 48.6434C128.922 46.7075 125.791 46.0577 125.151 39.9153C124.328 31.9721 127.953 23.0976 132.528 19.2035C133.381 18.4917 133.34 19.4962 133.34 21.3479C133.34 24.6875 133.156 54.5664 133.156 60.8043C133.156 69.2486 132.816 71.9075 132.187 74.5329C131.57 77.2029 130.57 79.0034 131.323 79.7043C132.176 80.4781 135.802 78.6354 137.903 75.655C140.418 72.0848 141.304 67.7939 141.467 63.1371C141.653 57.5289 141.642 48.6123 141.653 43.5364C141.653 38.8685 141.725 25.2219 141.581 17.006C141.539 14.9971 136.04 12.8925 133.453 13.9925ZM419.324 58.3231C418.438 58.3231 418.017 59.2654 417.677 60.8466C416.502 66.3616 415.267 67.6056 413.669 67.6056C411.889 67.6056 410.291 64.8759 409.87 59.4118C409.551 55.1209 409.601 47.2088 410.014 39.3388C410.097 37.7267 409.662 36.1278 405.398 34.5468C403.556 33.8771 400.887 32.8725 399.56 36.1368C395.799 45.3373 394.337 52.6618 393.985 55.6243C393.977 55.7795 393.791 55.8018 393.758 55.4469C393.544 53.0697 393.049 48.7477 392.988 39.6626C392.966 37.9064 392.606 36.3872 390.67 35.1522C389.424 34.3582 385.633 32.9346 384.262 34.62C383.088 36.0014 381.72 39.7069 380.288 44.1021C379.133 47.6811 378.33 50.1093 378.33 50.1093C378.33 50.1093 378.339 40.4586 378.361 36.7954C378.361 35.4138 377.433 34.9548 377.156 34.8705C375.888 34.4936 373.385 33.8771 372.335 33.8771C371.028 33.8771 370.718 34.62 370.718 35.6977C370.718 35.8329 370.502 48.3908 370.502 57.1722V58.4072C369.79 62.4477 367.444 67.9316 364.899 67.9316C362.354 67.9316 361.15 65.6386 361.15 55.1741C361.15 49.0715 361.335 46.415 361.418 41.9977C361.468 39.4541 361.571 37.4982 361.562 37.0482C361.54 35.6977 359.223 35.0058 358.151 34.7552C357.071 34.4936 356.132 34.4093 355.392 34.4404C354.362 34.5046 353.631 35.1943 353.631 36.1589V37.6225C352.302 35.4891 350.148 34.0013 348.707 33.5732C344.855 32.4113 340.826 33.4468 337.788 37.7577C335.379 41.1927 333.925 45.0733 333.36 50.6527C332.936 54.735 333.072 58.8686 333.823 62.3634C332.917 66.3083 331.247 67.9316 329.425 67.9316C326.767 67.9316 324.853 63.5342 325.069 55.9258C325.224 50.9254 326.201 47.4195 327.282 42.3325C327.747 40.1659 327.365 39.0373 326.428 37.9373C325.573 36.9527 323.739 36.4405 321.114 37.057C319.248 37.5072 316.561 37.9883 314.119 38.3564C314.119 38.3564 314.263 37.7577 314.387 36.7022C315.016 31.165 309.093 31.6152 307.207 33.3848C306.074 34.4404 305.302 35.6866 305.014 37.9263C304.551 41.4854 307.403 43.1596 307.403 43.1596C306.467 47.5127 304.18 53.2049 301.801 57.3186C300.533 59.5272 299.564 61.1504 298.309 62.8867C298.297 62.2481 298.297 61.5983 298.297 60.9618C298.276 51.8036 298.389 44.5943 298.441 41.9977C298.494 39.4541 298.597 37.5493 298.597 37.0991C298.575 36.1145 298.009 35.7286 296.813 35.2674C295.764 34.8505 294.517 34.5468 293.23 34.4404C291.612 34.3161 290.624 35.1943 290.654 36.2299V37.6225C289.316 35.4891 287.162 34.0013 285.741 33.5732C281.878 32.4113 277.852 33.4468 274.814 37.7577C272.413 41.1927 270.826 45.9959 270.372 50.5995C269.962 54.9125 270.034 58.5536 270.61 61.6316C269.993 64.7072 268.231 67.9316 266.234 67.9316C263.689 67.9316 262.236 65.6386 262.236 55.1741C262.236 49.0715 262.421 46.415 262.515 41.9977C262.566 39.4541 262.659 37.4982 262.648 37.0482C262.637 35.6977 260.322 35.0058 259.239 34.7552C258.117 34.4846 257.138 34.4004 256.395 34.4404C255.407 34.5245 254.717 35.4138 254.717 36.0945V37.6225C253.379 35.4891 251.225 34.0013 249.793 33.5732C245.941 32.4113 241.945 33.4691 238.885 37.7577C236.888 40.5541 235.271 43.6608 234.437 50.5484C234.21 52.5375 234.097 54.3981 234.108 56.1366C233.313 61.0749 229.802 66.7695 226.938 66.7695C225.249 66.7695 223.643 63.461 223.643 56.3982C223.643 47.0004 224.219 33.6043 224.321 32.3071C224.321 32.3071 227.947 32.2427 228.658 32.2339C230.461 32.2227 232.109 32.265 234.509 32.1386C235.725 32.0765 236.888 27.6702 235.631 27.1159C235.075 26.8741 231.079 26.6545 229.492 26.6236C228.154 26.5925 224.455 26.3109 224.455 26.3109C224.455 26.3109 224.786 17.4253 224.858 16.4939C224.919 15.6977 223.931 15.3009 223.355 15.0591C221.962 14.4537 220.716 14.17 219.254 13.8661C217.204 13.4382 216.288 13.8573 216.113 15.6024C215.845 18.2523 215.701 26.0182 215.701 26.0182C214.197 26.0182 209.099 25.7122 207.603 25.7122C206.215 25.7122 204.709 31.7837 206.637 31.8568C208.852 31.9412 212.693 32.0255 215.247 32.0963C215.247 32.0963 215.133 45.7141 215.133 49.9097V51.207C213.723 58.6467 208.788 62.6672 208.788 62.6672C209.849 57.7377 207.686 54.0432 203.773 50.9254C202.331 49.7634 199.489 47.5747 196.305 45.1997C196.305 45.1997 198.149 43.3482 199.786 39.6427C200.94 37.0149 200.993 33.9923 198.149 33.3315C193.452 32.2339 189.589 35.7398 188.426 39.4852C187.54 42.3745 188.005 44.53 189.764 46.7586L190.165 47.262C189.115 49.3331 187.653 52.1272 186.427 54.2938C182.998 60.3122 180.412 65.0643 178.465 65.0643C176.9 65.0643 176.92 60.239 176.92 55.7174C176.92 51.8235 177.208 45.9536 177.435 39.8843C177.507 37.8841 176.518 36.7332 174.862 35.6977C173.851 35.07 171.708 33.835 170.462 33.835C168.609 33.835 163.231 34.0854 158.154 48.9983C157.515 50.8832 156.258 54.3049 156.258 54.3049L156.371 36.3673C156.371 35.9482 156.155 35.5513 155.651 35.2674C154.796 34.7973 152.499 33.835 150.481 33.835C149.501 33.835 149.016 34.2962 149.016 35.2054L148.853 63.2526C148.853 65.3881 148.903 67.8783 149.11 68.9672C149.315 70.0559 149.656 70.9452 150.068 71.4774C150.481 71.9918 150.963 72.3888 151.747 72.5662C152.478 72.7236 156.504 73.2358 156.712 71.677C156.969 69.8031 156.978 67.7852 159.091 60.2191C162.386 48.455 166.673 42.7205 168.691 40.6781C169.052 40.3234 169.453 40.3013 169.431 40.8889C169.34 43.4722 169.041 49.9098 168.836 55.3827C168.29 70.0449 170.905 72.7547 174.665 72.7547C177.529 72.7547 181.566 69.8563 185.903 62.5318C188.611 57.9572 191.228 53.4888 193.123 50.2557C194.421 51.4886 195.903 52.8191 197.376 54.2427C200.807 57.5381 201.929 60.6781 201.178 63.6518C200.611 65.9313 198.459 68.2753 194.637 65.9957C193.524 65.3349 193.051 64.8226 191.929 64.0686C191.331 63.6606 190.403 63.5454 189.857 63.9645C188.415 65.0643 187.601 66.4547 187.127 68.1822C186.684 69.8675 188.343 70.7456 190.063 71.5195C191.536 72.2003 194.709 72.7967 196.737 72.8699C204.637 73.1427 210.962 68.9981 215.36 58.3231C216.154 67.5435 219.5 72.7658 225.321 72.7658C229.223 72.7658 233.128 67.6477 234.839 62.614C235.321 64.6651 236.052 66.4435 236.991 67.9627C241.483 75.1829 250.195 73.635 254.562 67.5013C255.922 65.5965 256.129 64.9158 256.129 64.9158C256.767 70.7057 261.361 72.7435 263.988 72.7435C266.944 72.7435 269.973 71.3222 272.103 66.4435C272.361 66.9781 272.629 67.4813 272.939 67.9627C277.42 75.1829 286.132 73.635 290.51 67.5013C290.707 67.1976 290.892 66.947 291.045 66.7053L291.18 70.5149C291.18 70.5149 288.677 72.839 287.143 74.2715C280.397 80.5626 275.266 85.3347 274.886 90.8808C274.412 97.9657 280.056 100.594 284.34 100.937C288.873 101.305 292.767 98.7617 295.155 95.1826C297.256 92.0426 298.638 85.2926 298.535 78.6156C298.494 75.9368 298.431 72.5463 298.369 68.894C300.749 66.1109 303.426 62.5717 305.879 58.4295C308.566 53.9279 311.43 47.8674 312.892 43.1486C312.892 43.1486 315.395 43.1707 318.054 43.0022C318.909 42.949 319.156 43.1286 318.99 43.7561C318.804 44.519 315.633 56.9636 318.527 65.2527C320.515 70.9231 324.974 72.7547 327.633 72.7547C330.732 72.7547 333.7 70.3686 335.284 66.8317C335.481 67.2197 335.677 67.6056 335.904 67.9627C340.385 75.1829 349.067 73.624 353.476 67.5013C354.475 66.1109 355.032 64.9158 355.032 64.9158C355.979 70.9141 360.573 72.7658 363.199 72.7658C365.949 72.7658 368.544 71.6259 370.656 66.559C370.739 68.7897 370.872 70.6104 371.099 71.1847C371.232 71.5417 372.016 71.9808 372.572 72.2003C375.085 73.1427 377.64 72.6926 378.577 72.4931C379.236 72.3577 379.751 71.8345 379.814 70.4529C379.997 66.8317 379.884 60.7513 380.966 56.2209C382.789 48.6436 384.478 45.7032 385.281 44.2484C385.726 43.4301 386.239 43.2949 386.25 44.1531C386.281 45.9004 386.375 51.0295 387.084 57.9372C387.59 63.002 388.28 66.0045 388.815 66.9581C390.319 69.6679 392.193 69.7943 393.708 69.7943C394.677 69.7943 396.696 69.5215 396.519 67.794C396.427 66.9581 396.582 61.7558 398.363 54.285C399.537 49.3975 401.484 44.9913 402.185 43.3791C402.453 42.7827 402.567 43.2439 402.567 43.337C402.412 46.6966 402.082 57.6954 403.42 63.7027C405.256 71.8566 410.537 72.7658 412.381 72.7658C416.306 72.7658 419.531 69.7299 420.612 61.7359C420.88 59.8088 420.488 58.3231 419.324 58.3231ZM254.634 53.3844C254.418 57.6111 253.604 61.1503 252.308 63.7137C249.937 68.3705 245.273 69.8362 243.222 63.1282C241.729 58.283 242.233 51.668 242.862 48.0979C243.767 42.8025 246.066 39.0571 249.649 39.4007C253.316 39.7689 255.108 44.5721 254.634 53.3844ZM290.572 53.4466C290.366 57.4336 289.347 61.4518 288.234 63.7137C285.938 68.4016 281.137 69.8673 279.148 63.1282C277.791 58.5114 278.109 52.5573 278.788 48.8097C279.666 43.9334 281.776 39.4007 285.578 39.4007C289.275 39.4007 291.098 43.5253 290.572 53.4466ZM291.51 80.6977C291.458 87.9934 290.336 94.3775 287.924 96.2402C284.485 98.877 279.86 96.8879 280.818 91.5725C281.663 86.8624 285.67 82.0593 291.521 76.1872C291.521 76.1872 291.541 77.5266 291.51 80.6977H291.51ZM353.559 53.4887C353.351 57.8749 352.393 61.2966 351.21 63.7137C348.912 68.4016 344.154 69.8561 342.125 63.1282C341.022 59.4539 340.97 53.3202 341.764 48.2044C342.568 42.9909 344.824 39.0571 348.552 39.4007C352.238 39.7578 353.96 44.5721 353.559 53.4887Z" fill="white"/>
</g>
</svg>
