<svg width="420" height="101" viewBox="0 0 420 101" fill="none" xmlns="http://www.w3.org/2000/svg">
<path d="M50.5302 0C29.4412 0 23.2735 0.0217557 22.0746 0.12121C17.7468 0.480956 15.0537 1.16238 12.1198 2.62311C9.85878 3.74586 8.07559 5.04732 6.31571 6.87169C3.11063 10.1988 1.16816 14.2919 0.464985 19.1574C0.12311 21.5195 0.023655 22.0012 0.00345328 34.0663C-0.0043166 38.088 0.00345328 43.3808 0.00345328 50.4802C0.00345328 71.5521 0.026763 77.7136 0.127771 78.9102C0.477416 83.1215 1.13786 85.771 2.53644 88.6692C5.20928 94.2169 10.3141 98.3816 16.328 99.9355C18.4103 100.472 20.7102 100.767 23.6628 100.907C24.9137 100.961 37.6641 101 50.4222 101C63.1804 101 75.9386 100.984 77.1584 100.922C80.5772 100.761 82.5624 100.495 84.7574 99.9278C87.7393 99.1631 90.5184 97.7566 92.9005 95.8067C95.2825 93.8567 97.2103 91.4102 98.5489 88.6381C99.9203 85.8099 100.616 83.0593 100.93 79.0679C100.999 78.1977 101.028 64.323 101.028 50.467C101.028 36.6086 100.996 22.7596 100.928 21.8893C100.61 17.8334 99.9141 15.1062 98.4984 12.2236C97.3368 9.86387 96.047 8.10166 94.1745 6.29983C90.8334 3.10796 86.7465 1.16548 81.8755 0.463085C79.5158 0.121987 79.0457 0.0209787 66.9713 0H50.5302Z" fill="url(#paint0_radial_96_614)"/>
<path d="M50.5302 0C29.4412 0 23.2735 0.0217557 22.0746 0.12121C17.7468 0.480956 15.0537 1.16238 12.1198 2.62311C9.85878 3.74586 8.07559 5.04732 6.31571 6.87169C3.11063 10.1988 1.16816 14.2919 0.464985 19.1574C0.12311 21.5195 0.023655 22.0012 0.00345328 34.0663C-0.0043166 38.088 0.00345328 43.3808 0.00345328 50.4802C0.00345328 71.5521 0.026763 77.7136 0.127771 78.9102C0.477416 83.1215 1.13786 85.771 2.53644 88.6692C5.20928 94.2169 10.3141 98.3816 16.328 99.9355C18.4103 100.472 20.7102 100.767 23.6628 100.907C24.9137 100.961 37.6641 101 50.4222 101C63.1804 101 75.9386 100.984 77.1584 100.922C80.5772 100.761 82.5624 100.495 84.7574 99.9278C87.7393 99.1631 90.5184 97.7566 92.9005 95.8067C95.2825 93.8567 97.2103 91.4102 98.5489 88.6381C99.9203 85.8099 100.616 83.0593 100.93 79.0679C100.999 78.1977 101.028 64.323 101.028 50.467C101.028 36.6086 100.996 22.7596 100.928 21.8893C100.61 17.8334 99.9141 15.1062 98.4984 12.2236C97.3368 9.86387 96.047 8.10166 94.1745 6.29983C90.8334 3.10796 86.7465 1.16548 81.8755 0.463085C79.5158 0.121987 79.0457 0.0209787 66.9713 0H50.5302Z" fill="url(#paint1_radial_96_614)"/>
<path d="M50.5068 13.209C40.3779 13.209 39.1068 13.2533 35.1286 13.4343C31.1582 13.6161 28.4481 14.2447 26.0767 15.167C23.6237 16.1196 21.543 17.3938 19.47 19.4676C17.3954 21.5406 16.1211 23.6214 15.1654 26.0736C14.2408 28.4457 13.6115 31.1567 13.4328 35.1255C13.2556 39.1037 13.209 40.3756 13.209 50.5045C13.209 60.6333 13.2541 61.9005 13.4343 65.8787C13.6169 69.8491 14.2455 72.5593 15.167 74.9306C16.1204 77.3836 17.3946 79.4644 19.4684 81.5374C21.5406 83.6119 23.6214 84.8893 26.0728 85.8419C28.4457 86.7642 31.1566 87.3928 35.1263 87.5746C39.1045 87.7556 40.3748 87.7999 50.5029 87.7999C60.6325 87.7999 61.8998 87.7556 65.8779 87.5746C69.8483 87.3928 72.5616 86.7642 74.9345 85.8419C77.3867 84.8893 79.4644 83.6119 81.5366 81.5374C83.6111 79.4644 84.8854 77.3836 85.8411 74.9314C86.7579 72.5593 87.3873 69.8484 87.5738 65.8795C87.7525 61.9013 87.7991 60.6333 87.7991 50.5045C87.7991 40.3756 87.7525 39.1045 87.5738 35.1263C87.3873 31.1559 86.7579 28.4457 85.8411 26.0744C84.8854 23.6214 83.6111 21.5406 81.5366 19.4676C79.462 17.3931 77.3875 16.1188 74.9322 15.167C72.5546 14.2447 69.8429 13.6161 65.8725 13.4343C61.8943 13.2533 60.6278 13.209 50.4959 13.209H50.5068ZM47.1611 19.9299C48.154 19.9284 49.262 19.9299 50.5068 19.9299C60.4647 19.9299 61.6449 19.9657 65.5772 20.1444C69.2135 20.3107 71.1871 20.9183 72.5018 21.4287C74.2422 22.1047 75.4831 22.9128 76.7876 24.2181C78.093 25.5235 78.901 26.7667 79.5786 28.5071C80.089 29.8202 80.6974 31.7938 80.8629 35.4301C81.0416 39.3617 81.0805 40.5427 81.0805 50.4959C81.0805 60.4491 81.0416 61.6302 80.8629 65.5617C80.6967 69.198 80.089 71.1716 79.5786 72.4847C78.9026 74.2251 78.093 75.4644 76.7876 76.769C75.4823 78.0743 74.243 78.8824 72.5018 79.5584C71.1886 80.0712 69.2135 80.6773 65.5772 80.8435C61.6457 81.0222 60.4647 81.0611 50.5068 81.0611C40.5481 81.0611 39.3679 81.0222 35.4363 80.8435C31.8 80.6757 29.8264 80.0681 28.511 79.5576C26.7705 78.8816 25.5274 78.0736 24.222 76.7682C22.9167 75.4629 22.1086 74.2228 21.4311 72.4816C20.9206 71.1685 20.3122 69.1949 20.1467 65.5586C19.968 61.627 19.9323 60.446 19.9323 50.4866C19.9323 40.5271 19.968 39.3523 20.1467 35.4208C20.313 31.7845 20.9206 29.8109 21.4311 28.4962C22.1071 26.7558 22.9167 25.5126 24.222 24.2073C25.5274 22.9019 26.7705 22.0939 28.511 21.4163C29.8257 20.9035 31.8 20.2975 35.4363 20.1304C38.8768 19.975 40.2101 19.9284 47.1611 19.9206V19.9299ZM70.4148 26.1225C69.5295 26.1225 68.6642 26.3851 67.9282 26.8769C67.1922 27.3687 66.6185 28.0678 66.2798 28.8857C65.9411 29.7035 65.8526 30.6035 66.0254 31.4717C66.1982 32.3399 66.6246 33.1373 67.2507 33.7632C67.8768 34.389 68.6743 34.8151 69.5426 34.9876C70.4109 35.1602 71.3108 35.0713 72.1285 34.7323C72.9463 34.3934 73.6451 33.8195 74.1367 33.0833C74.6283 32.3471 74.8905 31.4817 74.8902 30.5964C74.8902 28.1256 72.8856 26.121 70.4148 26.121V26.1225ZM50.5068 31.3517C39.9296 31.3517 31.354 39.9273 31.354 50.5045C31.354 61.0816 39.9296 69.6533 50.5068 69.6533C61.0839 69.6533 69.6572 61.0816 69.6572 50.5045C69.6572 39.9273 61.0831 31.3517 50.506 31.3517H50.5068ZM50.5068 38.0726C57.3722 38.0726 62.9386 43.6382 62.9386 50.5045C62.9386 57.3699 57.3722 62.9363 50.5068 62.9363C43.6405 62.9363 38.0749 57.3699 38.0749 50.5045C38.0749 43.6382 43.6405 38.0726 50.5068 38.0726V38.0726Z" fill="white"/>
<path d="M132.621 14.0199C126.42 16.6561 119.602 24.096 117.45 33.4539C114.72 45.3003 126.071 50.303 126.999 48.6708C128.09 46.7349 124.958 46.0851 124.318 39.9426C123.496 31.9994 127.121 23.1249 131.695 19.2308C132.549 18.519 132.507 19.5235 132.507 21.3753C132.507 24.7149 132.324 54.5937 132.324 60.8317C132.324 69.2759 131.983 71.9348 131.355 74.5602C130.737 77.2303 129.738 79.0308 130.491 79.7316C131.344 80.5055 134.969 78.6627 137.071 75.6824C139.585 72.1121 140.471 67.8212 140.635 63.1644C140.82 57.5563 140.81 48.6397 140.82 43.5638C140.82 38.8958 140.892 25.2492 140.748 17.0333C140.707 15.0244 135.207 12.9199 132.621 14.0199ZM418.492 58.3504C417.606 58.3504 417.184 59.2928 416.844 60.8739C415.67 66.3889 414.435 67.6329 412.837 67.6329C411.056 67.6329 409.458 64.9032 409.037 59.4391C408.719 55.1482 408.769 47.2361 409.181 39.3662C409.264 37.7541 408.83 36.1551 404.565 34.5741C402.723 33.9044 400.054 32.8999 398.727 36.1641C394.967 45.3646 393.504 52.6891 393.153 55.6517C393.145 55.8068 392.959 55.8291 392.926 55.4742C392.712 53.0971 392.217 48.7751 392.155 39.69C392.134 37.9337 391.774 36.4146 389.838 35.1795C388.591 34.3855 384.8 32.9619 383.43 34.6473C382.256 36.0287 380.887 39.7342 379.456 44.1294C378.301 47.7085 377.498 50.1367 377.498 50.1367C377.498 50.1367 377.506 40.486 377.528 36.8227C377.528 35.4411 376.601 34.9821 376.324 34.8978C375.056 34.5209 372.552 33.9044 371.503 33.9044C370.195 33.9044 369.885 34.6473 369.885 35.725C369.885 35.8603 369.669 48.4181 369.669 57.1995V58.4346C368.958 62.475 366.612 67.9589 364.067 67.9589C361.522 67.9589 360.317 65.6659 360.317 55.2014C360.317 49.0989 360.503 46.4423 360.586 42.025C360.636 39.4814 360.738 37.5256 360.73 37.0755C360.708 35.725 358.39 35.0332 357.318 34.7825C356.238 34.5209 355.3 34.4366 354.56 34.4677C353.53 34.5319 352.798 35.2216 352.798 36.1862V37.6498C351.469 35.5165 349.315 34.0286 347.875 33.6005C344.023 32.4387 339.994 33.4741 336.956 37.785C334.546 41.2201 333.093 45.1007 332.527 50.68C332.104 54.7624 332.239 58.8959 332.99 62.3907C332.084 66.3357 330.415 67.9589 328.592 67.9589C325.934 67.9589 324.02 63.5616 324.236 55.9532C324.391 50.9528 325.369 47.4469 326.449 42.3598C326.914 40.1932 326.532 39.0646 325.596 37.9646C324.74 36.9801 322.907 36.4678 320.281 37.0843C318.415 37.5345 315.729 38.0157 313.286 38.3837C313.286 38.3837 313.43 37.785 313.555 36.7296C314.183 31.1923 308.26 31.6425 306.374 33.4121C305.242 34.4677 304.469 35.7139 304.181 37.9537C303.718 41.5128 306.571 43.1869 306.571 43.1869C305.635 47.54 303.347 53.2323 300.968 57.3459C299.7 59.5545 298.731 61.1778 297.476 62.9141C297.465 62.2754 297.465 61.6257 297.465 60.9892C297.443 51.8309 297.557 44.6217 297.609 42.025C297.661 39.4814 297.764 37.5766 297.764 37.1264C297.742 36.1418 297.177 35.756 295.981 35.2948C294.931 34.8778 293.685 34.5741 292.397 34.4677C290.78 34.3435 289.791 35.2216 289.822 36.2572V37.6498C288.484 35.5165 286.33 34.0286 284.909 33.6005C281.046 32.4387 277.019 33.4741 273.981 37.785C271.58 41.2201 269.994 46.0232 269.54 50.6268C269.129 54.9398 269.201 58.5809 269.778 61.6589C269.16 64.7346 267.399 67.9589 265.402 67.9589C262.857 67.9589 261.403 65.6659 261.403 55.2014C261.403 49.0989 261.589 46.4423 261.683 42.025C261.733 39.4814 261.827 37.5256 261.816 37.0755C261.805 35.725 259.489 35.0332 258.407 34.7825C257.285 34.5119 256.305 34.4278 255.563 34.4677C254.574 34.5519 253.885 35.4411 253.885 36.1219V37.6498C252.547 35.5165 250.393 34.0286 248.961 33.6005C245.109 32.4387 241.113 33.4964 238.053 37.785C236.056 40.5814 234.439 43.6882 233.605 50.5757C233.378 52.5649 233.264 54.4254 233.275 56.1639C232.481 61.1023 228.969 66.7969 226.106 66.7969C224.416 66.7969 222.81 63.4884 222.81 56.4255C222.81 47.0278 223.386 33.6316 223.489 32.3344C223.489 32.3344 227.114 32.27 227.826 32.2612C229.628 32.2501 231.276 32.2923 233.677 32.1659C234.892 32.1039 236.056 27.6976 234.799 27.1432C234.242 26.9014 230.246 26.6819 228.659 26.6509C227.321 26.6198 223.622 26.3383 223.622 26.3383C223.622 26.3383 223.954 17.4526 224.026 16.5212C224.087 15.7251 223.098 15.3283 222.522 15.0864C221.13 14.4811 219.883 14.1973 218.421 13.8935C216.372 13.4655 215.455 13.8847 215.281 15.6298C215.012 18.2797 214.868 26.0456 214.868 26.0456C213.364 26.0456 208.266 25.7395 206.771 25.7395C205.383 25.7395 203.877 31.811 205.804 31.8842C208.019 31.9685 211.861 32.0528 214.414 32.1237C214.414 32.1237 214.301 45.7415 214.301 49.9371V51.2343C212.891 58.6741 207.956 62.6946 207.956 62.6946C209.017 57.765 206.854 54.0705 202.941 50.9528C201.498 49.7907 198.656 47.602 195.472 45.2271C195.472 45.2271 197.316 43.3755 198.953 39.67C200.108 37.0423 200.16 34.0197 197.316 33.3589C192.62 32.2612 188.757 35.7671 187.593 39.5125C186.707 42.4019 187.172 44.5573 188.931 46.7859L189.333 47.2894C188.283 49.3605 186.821 52.1546 185.594 54.3211C182.165 60.3395 179.579 65.0916 177.632 65.0916C176.067 65.0916 176.087 60.2664 176.087 55.7448C176.087 51.8509 176.375 45.981 176.602 39.9117C176.674 37.9114 175.686 36.7605 174.029 35.725C173.018 35.0974 170.875 33.8623 169.629 33.8623C167.776 33.8623 162.398 34.1128 157.322 49.0257C156.682 50.9105 155.425 54.3323 155.425 54.3323L155.539 36.3946C155.539 35.9755 155.323 35.5787 154.819 35.2948C153.963 34.8246 151.667 33.8623 149.648 33.8623C148.668 33.8623 148.184 34.3235 148.184 35.2328L148.02 63.28C148.02 65.4155 148.07 67.9057 148.278 68.9945C148.483 70.0832 148.823 70.9725 149.236 71.5047C149.648 72.0191 150.131 72.4161 150.914 72.5936C151.645 72.7509 155.672 73.2632 155.879 71.7043C156.137 69.8304 156.145 67.8125 158.258 60.2464C161.554 48.4823 165.84 42.7478 167.859 40.7055C168.219 40.3507 168.621 40.3286 168.599 40.9162C168.507 43.4996 168.208 49.9371 168.003 55.41C167.457 70.0723 170.072 72.782 173.833 72.782C176.696 72.782 180.734 69.8837 185.07 62.5592C187.779 57.9845 190.396 53.5162 192.29 50.283C193.589 51.5159 195.07 52.8464 196.544 54.2701C199.975 57.5654 201.096 60.7054 200.346 63.6791C199.778 65.9586 197.626 68.3027 193.805 66.023C192.692 65.3622 192.218 64.85 191.096 64.0959C190.498 63.688 189.571 63.5727 189.025 63.9918C187.582 65.0916 186.768 66.482 186.295 68.2095C185.852 69.8948 187.51 70.7729 189.23 71.5468C190.703 72.2277 193.877 72.8241 195.904 72.8973C203.805 73.17 210.13 69.0255 214.528 58.3504C215.322 67.5709 218.668 72.7932 224.488 72.7932C228.391 72.7932 232.295 67.675 234.006 62.6413C234.489 64.6925 235.22 66.4709 236.158 67.99C240.65 75.2102 249.362 73.6623 253.73 67.5286C255.089 65.6239 255.297 64.9431 255.297 64.9431C255.934 70.733 260.528 72.7709 263.156 72.7709C266.111 72.7709 269.14 71.3496 271.27 66.4709C271.528 67.0054 271.797 67.5087 272.106 67.99C276.587 75.2102 285.3 73.6623 289.678 67.5286C289.874 67.225 290.06 66.9743 290.212 66.7327L290.348 70.5423C290.348 70.5423 287.844 72.8663 286.31 74.2988C279.564 80.59 274.433 85.362 274.053 90.9081C273.58 97.9931 279.224 100.621 283.508 100.964C288.041 101.333 291.935 98.7891 294.322 95.21C296.424 92.07 297.805 85.3199 297.703 78.6429C297.662 75.9641 297.598 72.5736 297.537 68.9214C299.916 66.1383 302.594 62.5991 305.047 58.4569C307.734 53.9552 310.597 47.8948 312.059 43.1759C312.059 43.1759 314.563 43.198 317.221 43.0296C318.077 42.9763 318.323 43.156 318.157 43.7835C317.972 44.5463 314.801 56.991 317.695 65.2801C319.683 70.9504 324.142 72.782 326.8 72.782C329.899 72.782 332.867 70.3959 334.452 66.8591C334.648 67.2471 334.845 67.6329 335.072 67.99C339.552 75.2102 348.234 73.6513 352.643 67.5286C353.643 66.1383 354.199 64.9431 354.199 64.9431C355.146 70.9414 359.741 72.7932 362.366 72.7932C365.116 72.7932 367.711 71.6532 369.824 66.5863C369.907 68.8171 370.04 70.6377 370.267 71.212C370.4 71.5691 371.183 72.0082 371.74 72.2277C374.252 73.17 376.808 72.72 377.744 72.5204C378.403 72.385 378.918 71.8618 378.981 70.4802C379.165 66.8591 379.051 60.7786 380.134 56.2482C381.956 48.6709 383.646 45.7305 384.449 44.2758C384.894 43.4575 385.407 43.3223 385.418 44.1805C385.448 45.9278 385.542 51.0569 386.252 57.9646C386.758 63.0293 387.447 66.0318 387.982 66.9855C389.486 69.6952 391.361 69.8216 392.875 69.8216C393.844 69.8216 395.863 69.5489 395.686 67.8214C395.595 66.9855 395.75 61.7832 397.531 54.3123C398.705 49.4248 400.652 45.0187 401.352 43.4064C401.621 42.81 401.734 43.2712 401.734 43.3644C401.579 46.7239 401.25 57.7228 402.588 63.73C404.423 71.8839 409.705 72.7932 411.549 72.7932C415.473 72.7932 418.699 69.7573 419.779 61.7632C420.047 59.8361 419.655 58.3504 418.492 58.3504ZM253.802 53.4117C253.586 57.6384 252.771 61.1776 251.475 63.741C249.105 68.3978 244.441 69.8635 242.389 63.1556C240.897 58.3104 241.401 51.6954 242.029 48.1253C242.935 42.8298 245.233 39.0844 248.817 39.428C252.483 39.7962 254.275 44.5994 253.802 53.4117ZM289.739 53.4739C289.534 57.461 288.515 61.4791 287.402 63.741C285.106 68.4289 280.304 69.8946 278.316 63.1556C276.958 58.5387 277.277 52.5847 277.956 48.8371C278.833 43.9608 280.944 39.428 284.746 39.428C288.443 39.428 290.265 43.5526 289.739 53.4739ZM290.678 80.725C290.625 88.0207 289.503 94.4049 287.092 96.2676C283.652 98.9043 279.027 96.9152 279.986 91.5998C280.83 86.8898 284.837 82.0866 290.689 76.2146C290.689 76.2146 290.708 77.5539 290.677 80.725H290.678ZM352.726 53.516C352.519 57.9022 351.561 61.324 350.378 63.741C348.08 68.4289 343.322 69.8835 341.292 63.1556C340.19 59.4812 340.138 53.3475 340.932 48.2317C341.735 43.0183 343.992 39.0844 347.72 39.428C351.406 39.7851 353.128 44.5994 352.726 53.516Z" fill="white"/>
<defs>
<radialGradient id="paint0_radial_96_614" cx="0" cy="0" r="1" gradientUnits="userSpaceOnUse" gradientTransform="translate(26.8356 108.779) rotate(-90) scale(100.098 93.1248)">
<stop stop-color="#FFDD55"/>
<stop offset="0.1" stop-color="#FFDD55"/>
<stop offset="0.5" stop-color="#FF543E"/>
<stop offset="1" stop-color="#C837AB"/>
</radialGradient>
<radialGradient id="paint1_radial_96_614" cx="0" cy="0" r="1" gradientUnits="userSpaceOnUse" gradientTransform="translate(-16.9226 7.27587) rotate(78.6776) scale(44.7449 184.487)">
<stop stop-color="#3771C8"/>
<stop offset="0.128" stop-color="#3771C8"/>
<stop offset="1" stop-color="#6600FF" stop-opacity="0"/>
</radialGradient>
</defs>
</svg>
