<svg width="114" height="79" viewBox="0 0 114 79" fill="none" xmlns="http://www.w3.org/2000/svg">
<g clip-path="url(#clip0_210_151)">
<path d="M111.276 12.568C110.625 10.1943 109.355 8.03018 107.593 6.29131C105.832 4.55243 103.639 3.29944 101.234 2.65711C92.4296 0.287109 56.9934 0.287109 56.9934 0.287109C56.9934 0.287109 21.5572 0.358927 12.7528 2.72893C10.3477 3.37126 8.15515 4.62425 6.39337 6.36312C4.63159 8.102 3.3621 10.2661 2.7113 12.6398C0.048132 28.0807 -0.98512 51.6084 2.78407 66.4316C3.43486 68.8054 4.70436 70.9695 6.46614 72.7084C8.22791 74.4472 10.4205 75.7002 12.8255 76.3426C21.63 78.7126 57.0662 78.7126 57.0662 78.7126C57.0662 78.7126 92.5024 78.7126 101.307 76.3426C103.712 75.7002 105.904 74.4472 107.666 72.7084C109.428 70.9695 110.697 68.8054 111.348 66.4316C114.157 50.9692 115.023 27.4559 111.276 12.568Z" fill="white"/>
<path d="M45.7148 56.3057L75.1116 39.5003L45.7148 22.6948V56.3057Z" fill="#FF0000"/>
</g>
<defs>
<clipPath id="clip0_210_151">
<rect width="114" height="79" fill="white"/>
</clipPath>
</defs>
</svg>
