<svg width="358" height="79" viewBox="0 0 358 79" fill="none" xmlns="http://www.w3.org/2000/svg">
<path d="M112.276 12.568C111.625 10.1943 110.356 8.03018 108.594 6.29131C106.832 4.55243 104.64 3.29944 102.235 2.65711C93.4301 0.287109 57.9939 0.287109 57.9939 0.287109C57.9939 0.287109 22.5577 0.358927 13.7533 2.72893C11.3482 3.37126 9.15564 4.62425 7.39386 6.36312C5.63208 8.102 4.36258 10.2661 3.71179 12.6398C1.04862 28.0807 0.0153684 51.6084 3.78456 66.4316C4.43535 68.8054 5.70485 70.9695 7.46663 72.7084C9.2284 74.4472 11.421 75.7002 13.826 76.3426C22.6305 78.7126 58.0667 78.7126 58.0667 78.7126C58.0667 78.7126 93.5028 78.7126 102.307 76.3426C104.712 75.7002 106.905 74.4472 108.667 72.7084C110.428 70.9695 111.698 68.8054 112.349 66.4316C115.157 50.9692 116.023 27.4559 112.276 12.568Z" fill="#FF0000"/>
<path d="M46.7148 56.3057L76.1116 39.5003L46.7148 22.6948V56.3057Z" fill="white"/>
<path d="M165.829 71.6023C163.574 70.0941 161.973 67.7959 161.027 64.6359C160.081 61.4759 159.644 57.3105 159.644 52.0678V44.9578C159.644 39.715 160.154 35.4059 161.245 32.2459C162.337 29.0141 164.01 26.7159 166.339 25.2796C168.667 23.8432 171.651 23.0532 175.362 23.0532C179 23.0532 181.983 23.7714 184.166 25.2796C186.349 26.7878 188.022 29.0859 189.041 32.2459C190.06 35.4059 190.569 39.6432 190.569 44.8859V51.9959C190.569 57.2387 190.06 61.4041 189.041 64.5641C188.022 67.7241 186.422 70.0223 184.166 71.5305C181.91 72.9668 178.854 73.7568 175.07 73.7568C171.141 73.8287 168.085 73.0387 165.829 71.6023V71.6023ZM178.418 63.9178C179.072 62.3378 179.364 59.6805 179.364 56.0896V40.7923C179.364 37.2732 179.072 34.6878 178.418 33.1078C177.763 31.4559 176.671 30.6659 175.143 30.6659C173.615 30.6659 172.596 31.4559 171.942 33.1078C171.287 34.7596 170.996 37.2732 170.996 40.7923V56.0896C170.996 59.6805 171.287 62.3378 171.869 63.9178C172.451 65.4978 173.542 66.2878 175.143 66.2878C176.671 66.2878 177.763 65.4978 178.418 63.9178V63.9178ZM337.917 52.2114V54.725L338.208 61.835C338.426 63.415 338.79 64.5641 339.372 65.2823C339.954 66.0005 340.9 66.3596 342.137 66.3596C343.811 66.3596 344.975 65.7132 345.557 64.4205C346.212 63.1278 346.503 60.9732 346.576 58.0287L356.253 58.6032C356.326 59.0341 356.326 59.6087 356.326 60.3268C356.326 64.8514 355.089 68.2268 352.542 70.4532C349.996 72.6796 346.503 73.8287 341.919 73.8287C336.389 73.8287 332.532 72.105 330.349 68.7296C328.166 65.3541 327.002 60.0396 327.002 52.9296V44.2396C327.25 32.0305 329.425 23.0891 342.21 23.0532C346.066 23.0532 348.977 23.7714 351.014 25.1359C353.052 26.5005 354.507 28.655 355.38 31.5996C356.253 34.5441 356.617 38.5659 356.617 43.7368V52.1396H337.917V52.2114ZM339.372 31.5278C338.79 32.2459 338.426 33.3232 338.208 34.9032C337.99 36.4832 337.917 42.085 337.917 42.085V45.6041H346.066V42.085C346.066 45.6041 345.994 36.555 345.775 34.9032C345.557 33.2514 345.193 32.1023 344.611 31.4559C344.029 30.8096 343.156 30.4505 341.992 30.4505C340.755 30.5223 339.881 30.8814 339.372 31.5278V31.5278ZM138.616 51.2778L125.882 5.88867H137.015C137.015 5.88867 142.217 28.655 144 39.3559H144.291C146.314 27.9943 151.422 5.88867 151.422 5.88867H162.555L149.676 51.2059V72.9668H138.688V51.2778H138.616Z" fill="white"/>
<path d="M226.661 23.9868V73.0386H217.929L216.983 67.0059H216.765C214.363 71.5305 210.798 73.8286 206.068 73.8286C197.504 73.8071 196.551 66.6468 196.463 60.6141V23.9868H207.669V59.9677C207.669 62.1223 207.887 63.7023 208.397 64.6359C209.43 66.6325 212.108 66.1225 213.563 65.1386C214.403 64.5781 215.08 63.8106 215.528 62.9123V23.9868H226.661Z" fill="white"/>
<path d="M283.551 23.9868V73.0386H274.819L273.873 67.0059H273.655C271.253 71.5305 267.688 73.8286 262.958 73.8286C254.394 73.8071 253.441 66.6468 253.354 60.6141V23.9868H264.559V59.9677C264.559 62.1223 264.777 63.7023 265.287 64.6359C266.32 66.6325 268.998 66.1225 270.453 65.1386C271.293 64.5781 271.971 63.8106 272.418 62.9123V23.9868H283.551Z" fill="white"/>
<path d="M257.076 14.7941H245.943V73.0386H235.028V14.7941H223.896V5.88864H257.003V14.7941H257.076ZM321.036 31.815C320.381 28.7268 319.289 26.5005 317.761 25.0641C316.233 23.6995 314.196 22.9814 311.504 22.9814C309.456 22.9769 307.454 23.5772 305.755 24.705C303.936 25.8541 302.626 27.3623 301.608 29.2295H301.535V3.375H290.766V72.9668H300.007L301.171 68.2986H301.389C302.279 69.9427 303.614 71.3102 305.246 72.2486C306.992 73.1823 308.884 73.685 310.994 73.685C314.778 73.685 317.543 71.9614 319.362 68.5141C321.109 65.0668 322.054 59.6805 322.054 52.4268V44.6705C322.054 39.2123 321.691 34.9032 321.036 31.815V31.815ZM310.776 51.8523C310.776 55.4432 310.63 58.2441 310.339 60.255C310.048 62.2659 309.539 63.7023 308.811 64.5641C308.084 65.4259 307.138 65.8568 305.974 65.8568C303.718 65.785 302.437 64.7795 301.535 63.2714V35.4059C301.899 34.0414 302.554 32.9641 303.5 32.1023C305.1 30.3284 307.836 30.3068 309.102 32.1023C309.757 32.9641 310.121 34.4723 310.412 36.555C310.63 38.6377 310.776 41.5823 310.776 45.4605V51.8523Z" fill="white"/>
</svg>
